<?xml version="1.0" standalone="no"?>
<!DOCTYPE svg PUBLIC "-//W3C//DTD SVG 1.1//EN" "http://www.w3.org/Graphics/SVG/1.1/DTD/svg11.dtd">
<svg xmlns="http://www.w3.org/2000/svg">
<metadata>Copyright (C) 2022 by original authors @ fontello.com</metadata>
<defs>
<font id="afn" horiz-adv-x="1000" >
<font-face font-family="afn" font-weight="400" font-stretch="normal" units-per-em="1000" ascent="850" descent="-150" />
<missing-glyph horiz-adv-x="1000" />
<glyph glyph-name="agregarbolsa" unicode="&#xe800;" d="M698 329l-17 282h-133v-127h-56v127h-217v-127h-56v127h-133l-30-506c-2-39 12-77 39-105 27-29 63-45 103-45h312c-18 36-28 76-28 118 0 129 93 235 216 256z m-423 337c0 59 49 108 109 108s108-48 108-108v-55h56v55c0 90-74 164-164 164s-165-74-165-164v-55h56v55z m466-390c-112 0-203-91-203-203 0-112 91-203 203-203s203 91 203 203-91 203-203 203z m-31-302l-91 103 42 37 51-58 106 110 40-39-148-153z" horiz-adv-x="1000" />

<glyph glyph-name="ayuda" unicode="&#xe801;" d="M485 186c-27 0-49-22-49-50 0-27 21-50 49-50 28 0 51 23 51 50 0 28-23 50-51 50z m9 382c-89 0-129-53-129-88 0-26 21-37 39-37 35 0 21 50 88 50 32 0 58-14 58-44 0-35-36-56-58-74-18-17-43-43-43-99 0-34 9-44 36-44 32 0 38 14 38 27 0 34 1 53 37 81 18 14 73 58 73 120 0 61-55 108-139 108z m6 262c-265 0-480-215-480-480v-442c0-21 17-38 38-38h442c265 0 480 215 480 480 0 265-215 480-480 480z m0-885h-405v405c0 224 181 405 405 405 224 0 405-181 405-405 0-224-181-405-405-405z" horiz-adv-x="1000" />

<glyph glyph-name="bolsacompra" unicode="&#xe802;" d="M915-98l-73 694c-1 15-13 26-28 26h-137v31c0 98-79 177-177 177-98 0-177-79-177-177v-31h-137c-15 0-27-11-28-26l-73-694c-1-8 1-16 7-22 6-6 13-10 21-10h774c8 0 16 4 21 10 6 6 8 14 7 22z m-535 751c0 66 54 120 120 120 66 0 120-54 120-120v-31h-240v31z m-235-726l67 638h112v-63c0-16 12-28 28-28s28 12 28 28v63h240v-63c0-16 12-28 28-28s28 12 28 28v63h112l67-638h-710z" horiz-adv-x="1000" />

<glyph glyph-name="buscar" unicode="&#xe803;" d="M115 215c136-150 368-162 519-26l28-28c0 0 0 0 0 0-23-23-23-60 0-82l192-192c22-23 59-23 82 0l27 27c0 0 0 0 0 0 23 23 23 60 0 82l-192 192c0 0 0 0 0 0-23 23-59 23-82 0l-28 28c131 145 125 368-13 506-144 144-376 144-520 0-139-138-145-362-13-507z m574-81l27 27c8 7 20 7 28 0l191-192c8-7 8-19 0-27l-27-27c-8-8-20-8-27 0l-192 191c-7 8-7 20 0 28z m-533 560c128 129 336 129 465 0 128-128 128-336 0-465s-337-128-465 0c-129 129-129 337 0 465z m27-437l27 27c-98 98-98 258 0 356l-27 27 0 0c-113-113-113-297 0-410z" horiz-adv-x="1000" />

<glyph glyph-name="pagar" unicode="&#xe804;" d="M943 652l-588 125c-25 5-49-11-55-36l-11-71 679-144 11 72c5 24-11 49-36 54z m-247-141c-7 25-33 39-58 32l-111-31-263 56-29-137-181-50c-24-7-39-33-32-57l102-368c7-24 33-39 58-32l584 162c24 7 39 33 32 58l-18 63 66-14c25-5 50 11 55 35l41 196-236 50-10 37z m-638-177c-1 4 2 9 6 10l162 45 382 106 41 12c1 0 1 0 2 0 3 0 7-2 9-6l4-17 16-55-602-167-20 72z m706-10l14 68c2 11 12 17 22 15l69-14c10-2 17-13 15-23l-15-68c-2-10-12-17-22-15l-69 15c-10 2-16 12-14 22z m-3-191c1-3 0-5-1-6 0-2-2-3-5-4l-584-163c-1 0-2 0-3 0-3 0-7 2-8 6l-60 214 602 167 36-132 23-82z m-496-14c-3 10-13 16-23 13l-69-19c-10-3-16-13-13-23l19-69c3-10 13-16 23-13l69 19c10 3 16 13 13 23l-19 69z" horiz-adv-x="1000" />

<glyph glyph-name="telefono" unicode="&#xe805;" d="M418 268c-92 91-113 183-117 220-1 10 2 20 9 27l74 74c11 11 13 28 5 41l-118 184c-9 14-28 19-43 12l-190-90c-12-6-19-19-18-33 10-94 51-326 279-554s459-269 554-279c13-1 27 6 33 19l89 189c7 16 2 34-12 43l-183 118c-13 8-30 6-41-5l-74-74c-7-7-17-11-27-10-37 5-129 26-220 118l0 0z m363 49c-18 0-33 15-33 33 0 137-111 248-248 248-19 0-34 15-34 34s15 33 34 33c173 0 314-141 314-315 0-18-14-33-33-33z m166 0c-19 0-33 15-33 33 0 228-186 414-414 414-18 0-33 14-33 33s15 33 33 33c265 0 480-215 480-480 0-9-4-17-10-24-6-6-14-9-23-9z" horiz-adv-x="1000" />

<glyph glyph-name="usuario" unicode="&#xe806;" d="M978 7c-5 21-24 33-45 29-20-4-33-24-29-44 2-12 0-24-8-33-4-5-14-14-30-14h-732c-16 0-26 9-30 14-8 9-11 21-8 33 38 187 203 324 394 328 3 0 7 0 10 0 3 0 7 0 10 0 134-3 258-71 333-183 12-17 35-22 52-11 17 12 22 35 11 52-62 92-151 159-253 192 62 47 102 121 102 204 0 142-114 256-255 256s-255-114-255-255c0-83 40-157 102-204-57-19-110-48-157-87-86-70-145-168-168-277-7-34 1-69 23-95 22-27 54-42 88-42h733c34 0 66 15 88 42 22 27 31 62 24 95z m-658 568c0 99 81 180 180 180s180-81 180-180c0-96-76-175-171-179-3 0-6 0-9 0-3 0-6 0-9 0-95 4-171 83-171 179z" horiz-adv-x="1000" />

<glyph glyph-name="verdetalles" unicode="&#xe807;" d="M974 368c-88 106-272 230-474 230-202 0-387-124-474-230-8-10-8-26 0-36 90-109 275-230 474-230 206 0 390 128 474 230 8 10 8 26 0 36z m-672-168c-81 35-157 90-216 150 32 33 109 104 216 150-67-89-67-211 0-300z m198-42c-106 0-192 86-192 192 0 106 86 192 192 192 106 0 192-86 192-192 0-106-86-192-192-192z m198 42c67 89 67 211 0 300 81-35 157-90 216-150-32-33-109-104-216-150z m-198 246c-53 0-96-43-96-96 0-53 43-96 96-96 53 0 96 43 96 96 0 53-43 96-96 96z m0-136c-22 0-40 18-40 40s18 40 40 40c22 0 40-18 40-40s-18-40-40-40z m0 398c16 0 28 12 28 28v66c0 15-12 28-28 28-16 0-28-13-28-28v-66c0-16 12-28 28-28z m168-38c14-8 31-3 39 10l37 66c8 14 4 31-10 39-14 7-31 3-38-11l-38-66c-8-13-3-30 10-38z m-375 10c8-13 25-18 39-10 13 8 18 25 10 38l-38 66c-7 14-24 19-38 11-14-8-18-25-10-39l37-66z m207-688c-16 0-28-12-28-28v-66c0-16 12-28 28-28 16 0 28 12 28 28v66c0 16-12 28-28 28z m-168 38c-14 8-31 3-39-10l-37-66c-8-14-4-31 10-39 14-7 31-3 38 11l38 66c8 13 3 30-10 38z m375-10c-8 13-25 18-39 10-13-8-18-25-10-38l38-66c7-14 24-19 38-11 14 8 18 25 10 39l-37 66z" horiz-adv-x="1000" />

<glyph glyph-name="emo-happy" unicode="&#xe808;" d="M261 800c-60 0-109-65-109-144 0-80 49-145 109-145s110 65 110 145c0 79-49 144-110 144z m477 0c-61 0-110-65-110-144 0-80 49-145 110-145 60 0 110 65 110 145 0 79-50 144-110 144z m208-599c-13 0-27-5-37-16-4-4-8-8-12-12-111-109-253-164-396-165-142-2-285 50-396 155l-3 3-12 12c-21 21-54 20-75-1-20-21-20-55 1-76 3-4 8-8 14-14l3-3c132-124 301-186 469-184 169 1 337 67 468 195 5 5 9 10 14 14 20 22 20 56-1 77-10 10-23 15-37 15z" horiz-adv-x="999" />

<glyph glyph-name="emo-unhappy" unicode="&#xe809;" d="M261 800c-60 0-109-65-109-144 0-80 49-145 109-145s110 65 110 145c0 79-49 144-110 144z m477 0c-61 0-110-65-110-144 0-80 49-145 110-145 60 0 110 65 110 145 0 79-50 144-110 144z m-244-599c-165 0-331-62-461-184l-3-3c-6-5-11-10-14-14-21-21-21-55-1-76 21-21 54-21 75-1l12 12 3 3c111 105 254 157 396 155 143-1 285-56 396-165 4-4 8-8 12-12 20-21 54-21 74-1 21 21 21 55 1 77-5 5-9 10-14 14-131 129-299 194-468 195-3 0-6 0-8 0z" horiz-adv-x="999" />

<glyph glyph-name="heart-empty" unicode="&#xe80a;" d="M929 517q0 46-12 80t-31 55-46 33-52 18-55 4-62-14-62-36-48-40-34-34q-10-13-27-13t-27 13q-14 15-34 34t-48 40-62 36-62 14-55-4-52-18-46-33-31-55-12-80q0-93 105-198l324-312 324 312q105 105 105 198z m71 0q0-123-128-251l-347-335q-10-10-25-10t-25 10l-348 336q-5 5-15 15t-31 37-38 54-30 67-13 77q0 123 71 192t196 70q34 0 70-12t67-33 54-38 42-38q20 20 42 38t54 38 67 33 70 12q125 0 196-70t71-192z" horiz-adv-x="1000" />

<glyph glyph-name="star" unicode="&#xe80b;" d="M929 489q0-12-15-27l-202-197 48-279q0-4 0-12 0-11-6-19t-17-9q-10 0-22 7l-251 132-250-132q-12-7-23-7-11 0-17 9t-6 19q0 4 1 12l48 279-203 197q-14 15-14 27 0 21 31 26l280 40 126 254q11 23 27 23t28-23l125-254 280-40q32-5 32-26z" horiz-adv-x="928.6" />

<glyph glyph-name="star-empty" unicode="&#xe80c;" d="M635 290l170 166-235 34-106 213-105-213-236-34 171-166-41-235 211 111 211-111z m294 199q0-12-15-27l-202-197 48-279q0-4 0-12 0-28-23-28-10 0-22 7l-251 132-250-132q-12-7-23-7-11 0-17 9t-6 19q0 4 1 12l48 279-203 197q-14 15-14 27 0 21 31 26l280 40 126 254q11 23 27 23t28-23l125-254 280-40q32-5 32-26z" horiz-adv-x="928.6" />

<glyph glyph-name="heart" unicode="&#xe80d;" d="M500-79q-14 0-25 10l-348 336q-5 5-15 15t-31 37-38 54-30 67-13 77q0 123 71 192t196 70q34 0 70-12t67-33 54-38 42-38q20 20 42 38t54 38 67 33 70 12q125 0 196-70t71-192q0-123-128-251l-347-335q-10-10-25-10z" horiz-adv-x="1000" />

<glyph glyph-name="email" unicode="&#xe80e;" d="M0 62l0 576q0 1 3 19l339-290-338-325q-4 14-4 20z m45 635q7 3 17 3l913 0q9 0 18-3l-340-291-45-36-89-73-89 73-45 36z m1-694l341 327 132-107 132 107 341-327q-8-3-17-3l-913 0q-8 0-16 3z m650 364l338 290q3-9 3-19l0-576q0-9-3-20z" horiz-adv-x="1037" />

<glyph glyph-name="facebook" unicode="&#xe80f;" d="M0 313l0 191 154 0 0 96q0 104 68 177t163 73l153 0 0-191-153 0q-15 0-27-16t-12-41l0-98 192 0 0-191-192 0 0-463-192 0 0 463-154 0z" horiz-adv-x="538" />

<glyph glyph-name="libro" unicode="&#xe810;" d="M167 717l0 0c-9 0-18-4-24-10-7-7-10-15-10-25v-515c0-19 15-34 34-34 80 0 214-17 307-114v539c0 7-2 13-5 18-76 122-222 140-302 141z m701-550v515c0 10-4 18-10 25-7 6-15 10-24 10h0c-80 0-226-19-302-141-3-5-5-11-5-17v-539c93 96 227 113 307 113 18 0 34 15 34 34z m78 431h-25v-431c0-48-39-87-88-87-68 0-179-14-259-89 137 34 282 12 364-7 10-2 21 0 29 7 9 6 13 16 13 27v546c0 18-16 34-34 34z m-867-431v431h-25c-18 0-34-16-34-34v-546c0-11 5-21 13-27 8-7 19-9 29-7 82 19 227 40 364 7-80 75-192 89-259 89-49 0-88 39-88 87z" horiz-adv-x="1000" />

<glyph glyph-name="chat" unicode="&#xe811;" d="M786 421q0-77-53-143t-143-104-197-38q-48 0-98 9-70-49-155-72-21-5-48-9h-2q-6 0-12 5t-6 12q-1 1-1 3t1 4 1 3l1 3t2 3 2 3 3 3 2 2q3 3 13 14t15 16 12 17 14 21 11 25q-69 40-108 98t-40 125q0 78 53 144t143 104 197 38 197-38 143-104 53-144z m214-142q0-67-40-126t-108-98q5-14 11-25t14-21 13-16 14-17 13-14q0 0 2-2t3-3 2-3 2-3l1-3t1-3 1-4-1-3q-2-8-7-13t-12-4q-28 4-48 9-86 23-156 72-50-9-98-9-151 0-263 74 32-3 49-3 90 0 172 25t148 72q69 52 107 119t37 141q0 43-13 85 72-39 114-99t42-128z" horiz-adv-x="1000" />

<glyph glyph-name="twitter" unicode="&#xe812;" d="M0-37q30-3 60-3 176 0 314 108-82 1-147 50t-89 125q20-4 47-4 35 0 67 9-88 17-145 87t-58 160l0 3q53-30 115-31-52 34-82 90t-31 120q0 68 35 127 94-117 230-186t290-78q-7 33-7 58 0 104 74 178t179 74q109 0 184-80 87 18 160 62-28-91-110-140 73 9 144 40-48-75-125-131l0-33q0-101-29-202t-90-194-145-165-201-115-253-42q-209 0-387 113z" horiz-adv-x="1230" />

<glyph glyph-name="linkedin" unicode="&#xe813;" d="M0 730q0 50 35 83t91 32q55 0 89-32 35-33 35-86 0-48-34-80-35-33-92-33l-1 0q-55 0-89 33t-34 83z m13-875l0 668 222 0 0-668-222 0z m345 0l222 0 0 373q0 35 8 54 14 34 43 58t71 23q112 0 112-151l0-357 222 0 0 383q0 148-70 225t-185 76q-129 0-201-111l0-2-1 0 1 2 0 95-222 0q2-32 2-199t-2-469z" horiz-adv-x="1036" />

<glyph glyph-name="right" unicode="&#xe814;" d="M0 347q0 26 18 43t43 17h642l-242 244q-19 18-19 44t19 42q17 19 42 19t44-19l390-390-390-391q-20-18-44-18t-42 18-19 44 19 43l242 242h-642q-25 0-43 18t-18 44z" horiz-adv-x="938" />

<glyph glyph-name="left" unicode="&#xe815;" d="M0 353l390 391q19 18 44 18 25 0 43-18t18-44-18-43l-243-243h642q25 0 43-18t18-43-18-43-43-18h-642l243-243q18-18 18-44t-18-43-43-18-44 18z" horiz-adv-x="938" />

<glyph glyph-name="cancel" unicode="&#xe816;" d="M654 349l346-346-154-154-346 346-346-346-154 154 346 346-346 346 154 154 346-346 346 346 154-154z" horiz-adv-x="1000" />

<glyph glyph-name="link" unicode="&#xe817;" d="M1000 583q0-112-78-188l-175-176q-78-78-189-78-97 0-171 63l115 115q26-17 56-17 44 0 75 31l175 176q31 29 31 74 0 44-30 75t-75 30q-25 0-49-12t-33-34h-238l132 129q80 78 188 78 110 0 188-78t78-188z m-387-89l-115-115q-26 17-56 17-44 0-75-31l-175-176q-31-29-31-74 0-44 31-74t74-31q25 0 50 12t32 34h238l-132-129q-80-78-188-78-110 0-188 78t-78 188q0 112 78 188l175 176q78 78 189 78 97 0 171-63z" horiz-adv-x="1000" />

<glyph glyph-name="camera" unicode="&#xe818;" d="M536 475q66 0 113-47t47-114-47-113-113-47-114 47-47 113 47 114 114 47z m393 232q59 0 101-42t41-101v-500q0-59-41-101t-101-42h-786q-59 0-101 42t-42 101v500q0 59 42 101t101 42h125l28 76q11 27 39 47t58 20h286q29 0 57-20t39-47l29-76h125z m-393-643q103 0 176 74t74 176-74 177-176 73-177-73-73-177 73-176 177-74z" horiz-adv-x="1071.4" />

<glyph glyph-name="videocam" unicode="&#xe819;" d="M1000 654v-608q0-23-22-32-7-3-14-3-15 0-25 10l-225 225v-92q0-67-47-114t-113-47h-393q-67 0-114 47t-47 114v392q0 67 47 114t114 47h393q66 0 113-47t47-114v-92l225 225q10 10 25 10 7 0 14-2 22-10 22-33z" horiz-adv-x="1000" />

<glyph glyph-name="basket" unicode="&#xe81a;" d="M357-7q0-29-21-50t-50-22-50 22-22 50 22 50 50 21 50-21 21-50z m500 0q0-29-21-50t-50-22-50 22-22 50 22 50 50 21 50-21 21-50z m72 607v-286q0-13-10-23t-22-12l-583-68q7-34 7-40 0-8-13-35h513q15 0 26-11t10-25-10-25-26-11h-571q-14 0-25 11t-11 25q0 6 5 18t9 20 12 22 8 17l-98 459h-114q-15 0-25 10t-11 25 11 26 25 10h143q9 0 16-3t10-9 8-14 4-14 3-17 3-14h670q14 0 25-11t11-25z" horiz-adv-x="928.6" />

<glyph glyph-name="shuffle" unicode="&#xe81b;" d="M372 582q-34-52-77-153-12 25-20 41t-23 35-28 32-36 19-45 8h-125q-8 0-13 5t-5 13v107q0 8 5 13t13 5h125q139 0 229-125z m628-446q0-8-5-13l-179-179q-5-5-12-5-8 0-13 6t-5 12v107q-18 0-48 0t-45-1-41 1-39 3-36 6-35 10-32 16-33 22-31 30-31 39q33 52 76 152 12-25 20-40t23-36 28-31 35-20 46-8h143v107q0 8 5 13t13 5q6 0 13-5l178-178q5-5 5-13z m0 500q0-8-5-13l-179-179q-5-5-12-5-8 0-13 6t-5 12v107h-143q-27 0-49-8t-38-25-29-34-25-44q-18-34-43-95-16-37-28-62t-30-59-36-55-41-47-50-38-60-23-71-10h-125q-8 0-13 5t-5 13v107q0 8 5 13t13 5h125q27 0 48 9t39 25 28 34 26 43q17 35 43 96 16 36 28 62t30 58 36 56 41 46 50 39 59 23 72 9h143v107q0 8 5 13t13 5q6 0 13-5l178-178q5-5 5-13z" horiz-adv-x="1000" />

<glyph glyph-name="gift" unicode="&#xe81c;" d="M518 93v400h-179v-400q0-14 10-21t26-8h107q16 0 26 8t10 21z m-255 471h109l-70 90q-15 17-39 17-22 0-38-15t-15-38 15-38 38-16z m384 54q0 22-15 38t-38 15q-24 0-39-17l-69-90h108q22 0 38 16t15 38z m210-143v-179q0-7-5-12t-13-5h-53v-233q0-22-16-37t-38-16h-607q-22 0-38 16t-16 37v233h-53q-8 0-13 5t-5 12v179q0 8 5 13t13 5h245q-51 0-88 36t-37 89 37 88 88 37q60 0 94-43l72-92 71 92q34 43 94 43 52 0 88-37t37-88-37-89-88-36h245q8 0 13-5t5-13z" horiz-adv-x="857.1" />

<glyph glyph-name="arrowcircle" unicode="&#xe81d;" d="M500-150c248 0 450 202 450 450 0 235-182 428-412 448l74 74c6 6 6 16 0 23-4 3-7 5-12 5s-8-2-12-5l-100-100c-1-2-3-3-3-5-2-3-2-8 0-13 2-2 2-4 3-5l100-100c7-7 17-7 24 0s6 16 0 23l-70 70c210-22 375-200 375-415 0-230-187-417-417-417s-417 187-417 417c0 110 44 215 120 293 7 7 7 17 0 24-6 6-16 6-23 0-83-85-130-197-130-317 0-248 202-450 450-450z" horiz-adv-x="1000" />

<glyph glyph-name="bag" unicode="&#xe81e;" d="M814-75l-133 689c-2 10-10 17-20 17h-88v54c0 91-74 165-165 165-91 0-166-74-166-165v-54h-88c-10 0-18-7-20-17l-133-689c-3-19 2-38 14-52 12-15 30-23 48-23h689c19 0 37 8 49 23 12 14 17 33 13 52z m-532 760c0 69 57 125 126 125 69 0 125-56 125-125v-54h-251z m488-787c-5-5-11-8-18-8h-689c-7 0-13 3-17 8-5 5-7 12-5 19l129 674h72v-97h-19c-11 0-20-8-20-20 0-11 9-20 20-20h82c12 0 20 9 20 20 0 12-8 20-20 20h-23v97h251v-97h-23c-11 0-20-8-20-20 0-11 9-20 20-20h82c11 0 20 9 20 20 0 12-9 20-20 20h-19v97h72l130-674c1-7-1-14-5-19z m0 0" horiz-adv-x="1000" />

<glyph glyph-name="comment-white-oval-bubble" unicode="&#xe81f;" d="M933 601c-44 55-105 98-182 130s-160 48-251 48c-91 0-175-16-251-48s-137-75-182-130c-45-55-67-115-67-180 0-55 17-108 50-156 34-49 80-90 139-123-4-15-9-29-15-43-5-13-10-24-15-32-4-9-10-18-18-29-8-10-13-18-17-22-4-4-11-11-20-21-9-10-14-16-17-20 0 0-2-1-4-5-3-3-4-4-4-4l-4-5c-1-3-2-5-2-6 0 0 0-2-1-5-1-3-1-6 0-7v-1c2-6 4-11 9-15 4-4 10-6 15-6h3c24 3 45 7 63 12 98 26 183 71 257 136 28-3 55-5 81-5 91 0 175 16 251 48 77 32 137 75 182 130 45 55 67 115 67 179 0 65-22 125-67 180z m-63-322c-39-44-91-79-157-104-66-26-137-39-213-39-23 0-47 1-72 4l-32 4-24-22c-46-40-97-72-154-95 17 30 30 62 39 96l15 53-48 28c-48 28-86 61-113 98-26 38-39 78-39 120 0 51 19 98 58 142 39 44 91 79 157 104 66 26 137 39 213 39 76 0 147-13 213-39 66-25 118-60 157-104 39-44 59-91 59-142s-20-99-59-143z m-484 228c0 14 4 29 14 44 9 14 22 27 40 37 18 9 39 14 63 14 22 0 41-4 58-12 17-8 31-19 40-33 9-14 14-30 14-46 0-13-3-24-8-34-6-10-12-18-19-25-7-7-20-19-39-36-5-5-9-9-13-13-3-3-5-6-7-9-1-3-2-6-3-9-1-3-2-9-4-16-3-16-12-24-27-24-8 0-15 3-20 8-5 5-8 13-8 23 0 13 2 24 6 33 4 10 9 18 16 25 6 7 15 15 26 25 10 9 17 15 21 19 5 5 8 10 11 15 3 5 5 11 5 17 0 12-5 23-14 31-9 9-21 13-35 13-17 0-29-5-37-13-8-8-15-21-20-37-6-18-16-26-30-26-9 0-16 3-22 9-5 6-8 13-8 20z m111-251c-9 0-17 3-24 9-7 6-10 14-10 25 0 10 3 18 10 24 6 7 15 10 24 10 10 0 18-3 25-10 6-6 9-14 9-24 0-11-3-19-10-25s-15-9-24-9z" horiz-adv-x="1000" />

<glyph glyph-name="delivery-truck" unicode="&#xe820;" d="M818 192c-25 0-48-9-66-26-17-18-27-41-27-65s10-47 27-65c18-17 41-27 66-27 50 0 90 41 90 92s-40 91-90 91z m0-142c-28 0-52 23-52 51s24 51 52 51c27 0 50-23 50-51s-23-51-50-51z m23 448c-3 3-8 5-13 5h-105c-11 0-20-9-20-20v-167c0-12 9-21 20-21h166c11 0 20 9 20 21v111c0 6-2 12-6 15l-62 56z m28-162h-126v126h77l49-44v-82z m-549-144c-24 0-47-9-65-26-17-18-27-41-27-65s9-47 27-65c18-17 41-27 65-27 50 0 91 41 91 92s-41 91-91 91z m0-142c-28 0-51 23-51 51s23 51 51 51c28 0 50-23 50-51s-22-51-50-51z m-135 117h-41v55c0 11-10 20-21 20s-20-9-20-20v-75c0-11 9-20 20-20h62c11 0 20 9 20 20s-9 20-20 20z m103 111c0 12-9 21-21 21h-247c-11 0-20-9-20-21s9-20 20-20h247c12 0 21 9 21 20z m-226 74l247-2c11 0 20 9 20 21 1 11-9 20-20 20l-247 2c0 0 0 0 0 0-11 0-20-9-20-21-1-11 9-20 20-20z m41 92h247c11 0 21 9 21 21s-10 20-21 20h-247c-11 0-20-9-20-20s9-21 20-21z m890 28l0 0-146 121c-4 3-8 4-13 4h-172v74c0 11-9 20-20 20h-519c-11 0-20-9-20-20v-149c0-12 9-21 20-21s21 9 21 21v128h478v-483h-167c-11 0-21-9-21-20s10-20 21-20h248c12 0 21 9 21 20s-9 20-21 20h-41v390h165l132-110-1-279h-21c-11 0-21-9-21-21s10-20 21-20h41c11 0 20 9 20 20l2 309c0 6-3 12-7 16z" horiz-adv-x="1000" />

<glyph glyph-name="locked" unicode="&#xe821;" d="M711 447v200c0 112-99 203-220 203s-219-91-219-203v-200h-158v-457-140h772v140 457h-175z m-404 200c0 92 83 168 184 168s184-76 184-168v-200h-368v200z m544-762h-702v70h702v-70z m-702 105v421h123 439 140v-421h-702z m351 316c-39 0-70-31-70-70v-105c0-39 31-70 70-70s70 31 70 70v105c0 39-31 70-70 70z m35-175c0-20-16-35-35-35s-35 15-35 35v105c0 19 16 35 35 35s35-16 35-35v-105z" horiz-adv-x="1000" />

<glyph glyph-name="registrada" unicode="&#xe822;" d="M500 819c64 0 125-12 183-37 56-23 106-57 149-100 43-43 77-93 101-149 24-58 37-120 37-183s-13-125-37-183c-24-56-58-106-101-149-43-43-93-77-149-101-58-24-119-37-183-37s-125 13-183 37c-55 24-106 58-149 101-43 43-77 93-101 149-24 58-36 120-36 183s12 125 37 183c23 56 57 106 100 149 43 43 94 77 150 101 57 24 119 36 182 36m0 31c-276 0-500-224-500-500s224-500 500-500 500 224 500 500-224 500-500 500l0 0z m0-109c104 0 202-41 276-115 74-74 115-172 115-276s-41-202-115-276c-74-74-172-115-276-115s-202 41-276 115c-74 74-115 172-115 276s41 202 115 276c74 74 172 115 276 115m0 30c-233 0-421-188-421-421s188-421 421-421 421 188 421 421-188 421-421 421l0 0z m-75-455h-38v-169c0-23-5-39-15-50-9-10-22-16-38-16-17 0-30 6-40 17-9 11-14 27-14 49v406c0 23 6 40 16 50 10 11 27 16 50 16h174c24 0 45-1 62-3 17-2 32-6 46-13 17-7 31-17 44-30 13-13 22-28 29-45 7-17 10-35 10-55 0-39-11-71-33-94-23-24-56-41-101-50 19-10 37-25 54-45 17-20 33-41 47-63 13-22 24-42 31-60 8-18 12-30 12-37 0-7-3-14-7-21-4-7-10-12-18-16-8-4-17-6-27-6-12 0-22 3-30 8-8 6-15 13-21 22-6 9-14 21-24 38l-43 72c-15 26-29 46-41 59-12 14-25 23-37 29-14 5-29 7-48 7z m61 222h-99v-145h96c26 0 47 2 65 7 18 4 31 12 40 22 10 11 14 26 14 45 0 14-3 27-11 38-7 12-18 20-31 26-13 5-37 7-74 7z" horiz-adv-x="1000" />

<glyph glyph-name="shoping" unicode="&#xe823;" d="M908-75l-133 689c-2 10-10 17-20 17h-88v54c0 91-74 165-165 165-91 0-166-74-166-165v-54h-88c-10 0-18-7-20-17l-133-689c-3-19 2-38 14-52 12-15 30-23 49-23h688c19 0 37 8 49 23 12 15 16 34 13 52z m-531 760c0 69 56 125 125 125 69 0 125-56 125-125v-54h-250v54z m487-787c-5-5-11-8-18-8h-688c-7 0-14 3-18 8-5 6-6 13-5 19l130 674h72v-97h-20c-11 0-20-9-20-19 0-12 9-20 20-20h83c11 0 20 9 20 20 0 10-9 19-20 19h-23v97h250v-97h-23c-11 0-20-9-20-19 0-12 9-20 20-20h82c11 0 20 9 20 20 0 10-9 19-20 19h-19v97h72l130-673c1-7-1-14-5-20z m-362 465c-65 0-118-52-118-117v-142c0-65 53-118 118-118s117 53 117 118v142c0 65-52 117-117 117z m103-117v-2c-30-16-64-25-99-25v39c10 2 18 11 18 22v29c0 11-8 20-18 22v18c55-2 99-48 99-103z m-103 76c7 0 12-6 12-13v-30c0-7-5-12-12-12s-13 5-13 12v30c0 7 6 13 13 13z m-5 27v-18c-10-3-18-11-18-22v-30c0-10 8-19 18-21v-39c-34 0-68 9-99 25v2c0 55 44 101 99 103z m5-348c-57 0-103 46-103 103v129c31-16 67-24 103-24 36 0 71 8 103 24v-129c0-57-46-103-103-103z" horiz-adv-x="1000" />

<glyph glyph-name="truck" unicode="&#xe824;" d="M233 192c-55 0-100-45-100-100 0-55 45-100 100-100s100 45 100 100c0 55-44 100-100 100z m0-167c-36 0-66 30-66 67 0 36 30 66 66 66s67-30 67-66c0-37-30-67-67-67z m567 167c-55 0-100-45-100-100 0-55 45-100 100-100 55 0 100 45 100 100 0 55-45 100-100 100z m0-167c-37 0-67 30-67 67 0 36 30 66 67 66 37 0 67-30 67-66 0-37-30-67-67-67z m197 259l-150 233c-3 5-8 8-14 8h-183c-9 0-17-7-17-17v-416c0-9 8-17 17-17h67v33h-50v384h157l143-222v-162h-84v-33h100c10 0 17 7 17 17v183c0 3-1 6-3 9z m-264 24v117h134v33h-150c-9 0-17-7-17-16v-150c0-9 8-17 17-17h250v33h-234z m-83 334h-633c-9 0-17-8-17-17v-533c0-10 8-17 17-17h133v33h-117v500h600v-500h-316v-33h333c9 0 17 7 17 17v533c0 9-8 17-17 17z" horiz-adv-x="1000" />

<glyph glyph-name="warranty" unicode="&#xe825;" d="M938 685l-1 1c-152 26-295 81-427 161-6 4-14 4-20 0-131-80-273-134-424-161l-4-1c-10-1-16-10-16-19v-256c0-130 44-257 126-359 82-102 197-173 324-201 1 0 3 0 4 0 1 0 3 0 4 0 127 28 242 100 324 201 82 102 127 229 127 360v255c0 10-7 18-17 19z m-23-274c0-248-174-466-415-521-241 54-415 273-415 520v240c147 27 287 80 415 157 129-77 268-130 415-157v-239z m-311 60l-163-162-44 44c-16 16-43 16-59 0-16-16-16-42 0-59l73-73c8-8 19-12 29-12 11 0 22 4 30 12l191 192c16 16 16 42 0 58-15 16-41 16-57 0z" horiz-adv-x="1000" />

<glyph glyph-name="trash-empty" unicode="&#xe826;" d="M286 439v-321q0-8-5-13t-13-5h-36q-8 0-13 5t-5 13v321q0 8 5 13t13 5h36q8 0 13-5t5-13z m143 0v-321q0-8-5-13t-13-5h-36q-8 0-13 5t-5 13v321q0 8 5 13t13 5h36q8 0 13-5t5-13z m142 0v-321q0-8-5-13t-12-5h-36q-8 0-13 5t-5 13v321q0 8 5 13t13 5h36q7 0 12-5t5-13z m72-404v529h-500v-529q0-12 4-22t8-15 6-5h464q2 0 6 5t8 15 4 22z m-375 601h250l-27 65q-4 5-9 6h-177q-6-1-10-6z m518-18v-36q0-8-5-13t-13-5h-54v-529q0-46-26-80t-63-34h-464q-37 0-63 33t-27 79v531h-53q-8 0-13 5t-5 13v36q0 8 5 13t13 5h172l39 93q9 21 31 35t44 15h178q23 0 44-15t30-35l39-93h173q8 0 13-5t5-13z" horiz-adv-x="785.7" />

<glyph glyph-name="ok" unicode="&#xe827;" d="M875 588l-535-600-340 338 123 124 196-195 420 457z" horiz-adv-x="875" />

<glyph glyph-name="logo" unicode="&#xe828;" d="M256 348c-59 38-159 112-144 243 11 83 38 122 92 157 37 26 160 56 266-22 0 0-99 90-249 73-153-25-198-157-201-226 0-53 8-163 172-269 183-112 383-214 340-420 0 0 90 231-276 464z m690 356c-41 61-92 99-179 110-97 13-231-42-290-164 0 0 85 146 251 126 136-22 164-123 175-170 12-56 9-140-67-216-75-75-98-86-132-113-43-32-122-80-126-142 2 15 15 66 123 123 138 84 225 124 262 222 25 83 25 158-17 224z m-368-573c0 1 0 3 0 4 0-3 0-4 0-4z m-320 393c89-86 156-112 227-114 16 0 31 0 46 2 152 30 224 121 224 121-77-69-252-70-252-70l0 0c-154-6-245 61-245 61z" horiz-adv-x="1000" />

<glyph glyph-name="salir" unicode="&#xe829;" d="M977 405c-2 5-5 9-9 13l-120 120c-16 16-41 16-56 0-16-15-16-40 0-56l51-52h-223c-22 0-40-18-40-40s18-40 40-40h224l-52-51c-16-16-16-41 0-57 8-8 18-11 28-11 11 0 21 4 29 11l120 120c3 4 7 8 9 14 3 8 3 20-1 29z m-277-135c-22 0-40-18-40-40v-200h-160v640c0 18-12 33-28 38l-140 42h328v-200c0-22 18-40 40-40s40 18 40 40v240c0 22-18 40-40 40h-640c-2 0-3 0-4-1-2 0-4 0-5-1-4-1-8-2-12-4-1-1-2-1-3-2 0 0 0-1-1-1-4-3-8-7-11-13 0 0 0-2 0-3-2-3-3-6-4-9 0-1 0-2 0-4 0 0 0-1 0-2v-800c0-19 14-36 32-39l400-80c3-1 5-1 8-1 9 0 18 3 25 9 9 8 15 19 15 31v40h200c22 0 40 18 40 40v240c0 22-18 40-40 40z" horiz-adv-x="1000" />

<glyph glyph-name="print" unicode="&#xe82a;" d="M214-7h500v143h-500v-143z m0 357h500v214h-89q-22 0-38 16t-16 38v89h-357v-357z m643-36q0 15-10 25t-26 11-25-11-10-25 10-25 25-10 26 10 10 25z m72 0v-232q0-7-6-12t-12-6h-125v-89q0-22-16-38t-38-16h-536q-22 0-37 16t-16 38v89h-125q-7 0-13 6t-5 12v232q0 44 32 76t75 31h36v304q0 22 16 38t37 16h375q23 0 50-12t42-26l85-85q15-16 27-43t11-49v-143h35q45 0 76-31t32-76z" horiz-adv-x="928.6" />

<glyph glyph-name="logout" unicode="&#xe82b;" d="M912 614l276-266-276-264v177h-413v176h413v177z m-166-512l106-107q-156-146-338-146-217 0-365 143t-149 359q0 135 68 250t184 182 250 66q184 0 349-148l-105-106q-114 104-243 104-149 0-251-104t-103-254q0-140 106-241t247-101q131 0 244 103z" horiz-adv-x="1188" />

<glyph glyph-name="ruleta" unicode="&#xe82c;" d="M500 830c-265 0-480-215-480-480s215-480 480-480 480 215 480 480-215 480-480 480z m0-929c-248 0-449 201-449 449s201 449 449 449 449-201 449-449-201-449-449-449z m0 867c-230 0-418-188-418-418s188-418 418-418 418 188 418 418-188 418-418 418z m387-418c0-10 0-21-1-31h-62c1 11 2 21 2 31s-1 21-2 31h62c0-10 1-21 1-31z m-275-305l23-58c-23-9-48-15-73-19v63c17 3 34 8 50 14l0 0z m28 12c14 7 28 15 42 23l44-44c-20-14-41-27-63-37l-23 58z m-124-1v218c10 2 19 6 27 11l154-154c-49-43-112-71-181-75l0 0z m-403 294c0 10 0 21 1 31h62c-1-11-2-21-2-31s1-21 2-31h-62c0 10-1 21-1 31z m275 305l-23 58c23 9 48 15 73 19v-63c-17-3-34-8-50-14z m-28-12c-14-7-28-15-42-23l-44 44c19 14 40 27 63 37l23-58z m124 1v-218c-10-2-19-6-27-11l-153 153c48 44 111 72 180 76z m286-112l44 44c14-19 27-40 37-63l-58-23c-7 14-15 29-23 42l0 0z m24-166h-210l56 55 20-20c4-4 10-5 16-3 5 2 9 6 10 12l15 119 18 18c43-49 71-112 75-181l0 0z m-335-82l-76-76-41-16 17 41 76 76c6-10 14-18 24-25l0 0z m41 20c-26 0-46 20-46 46 0 26 20 46 46 46 26 0 46-20 46-46 0-26-20-46-46-46z m104 196l-8 9 72 9-9-73-9 9c-6 6-16 6-22 0l-62-63c-7 10-15 18-25 24l63 63c6 6 6 16 0 22l0 0z m36 143l23 58c23-11 43-23 63-37l-44-45c-13 9-28 17-42 24z m-28 12c-16 6-33 11-50 14v63c25-4 50-10 73-19l-23-58z m84-87l-18-18-118-14c-6-1-11-5-13-11-2-5 0-11 4-16l20-20-55-55v210c69-4 132-32 180-76l0 0z m-414-22l154-154c-6-8-10-17-12-27h-218c4 70 32 133 76 181l0 0z m-75-56l-58 23c10 23 23 43 37 63l44-44c-8-13-16-28-23-42l0 0z m-12-28c-6-16-11-33-14-50h-63c4 25 10 50 19 73l58-23z m-14-174c3-17 8-34 14-50l-58-23c-9 23-15 48-19 73h63z m26-78c7-14 15-28 24-42l-45-44c-14 20-26 41-37 63l58 23z m-1 124h210l-82-82c-2-1-3-3-4-5l-29-74-19-19c-44 48-72 111-76 180z m154-277l-23-58c-23 10-43 23-63 37l44 44c13-8 28-16 42-23l0 0z m28-12c16-6 33-11 50-14v-63c-25 4-50 10-73 19l23 58z m-84 87l19 19 74 29c2 1 4 2 5 4l82 82v-210c-69 4-132 32-180 76z m414 22l-154 154c6 8 10 17 12 27h217c-3-70-31-133-75-181l0 0z m75 56l58-23c-11-23-23-43-37-63l-45 44c9 13 17 28 24 42l0 0z m12 28c6 16 11 33 14 50h63c-4-25-10-50-19-73l-58 23z m14 174c-3 17-8 34-14 50l58 23c9-23 15-48 19-73l-63 0 0 0z m-25 189l-44-44c-13 16-28 31-44 44l44 44c16-14 31-29 44-44z m-263 135v-62c-11 0-21 1-31 1s-21-1-31-1v62c11 0 21 1 31 1s21-1 31-1z m-282-92l44-44c-16-13-31-28-44-44l-44 44c14 16 29 31 44 44z m-43-545l44 44c13-16 28-31 44-44l-44-44c-16 14-31 29-44 44z m263-135v62c11 0 21-1 31-1s21 1 31 1v-62c-11 0-21-1-31-1s-21 1-31 1z m282 92l-44 44c16 13 31 28 44 44l44-44c-14-16-29-31-44-44z" horiz-adv-x="1000" />

<glyph glyph-name="videocamara" unicode="&#xe82d;" d="M942 198c21 0 38 17 38 38v166c0 14-7 26-19 33-12 7-27 7-38 0l-151-92c0 53-28 99-70 126 43 38 70 93 70 155 0 114-93 206-206 206-114 0-206-92-207-205-16 77-85 136-168 136-94 0-171-77-171-172 0-51 22-97 58-128-35-28-58-71-58-119v-322c0-83 67-150 150-150h452c83 0 150 67 150 150v2l152-90c11-7 26-8 37-1 12 7 19 19 19 33v84c0 21-17 38-38 38s-37-17-37-38v-18l-152 90c-11 6-26 7-37 0-12-7-19-19-19-32v-68c0-41-34-75-75-75h-452c-42 0-76 33-76 75v322c0 42 34 76 76 76h452c41 0 75-34 75-76v-65c0-14 7-26 19-33 12-7 26-6 38 0l151 92v-101c0-20 17-37 37-37z m-750 294c-54 0-97 44-97 97s43 96 97 96 96-43 96-96-43-97-96-97z m141 0c18 27 29 58 30 93 7-35 22-66 43-93h-73z m233 0c-73 0-132 59-132 132s59 131 132 131 131-59 131-131-59-132-131-132z" horiz-adv-x="1000" />

<glyph glyph-name="comprasegura" unicode="&#xe82e;" d="M856 706c-118 0-231 37-327 106l-20 15c-5 4-13 4-18 0l-20-15c-96-69-209-106-327-106-8 0-16-7-16-16v-293c0-213 125-411 317-503l48-22c2-2 5-2 7-2s4 0 7 2l48 22c192 92 317 290 317 503v294c0 8-7 15-16 15z m-15-309c0-201-118-388-299-475l-42-19-41 19c-182 87-299 274-299 475v278c119 3 233 42 330 112l10 8 11-8c97-70 211-109 330-112v-278z m-480 85v-78h-16c-8 0-15-7-15-16v-216c0-9 6-16 15-16h310c8 0 15 7 15 16v216c0 9-6 16-15 16h-16v78c0 76-62 139-139 139s-139-63-139-139z m278-186h-62v-31h62v-77h-278v77h62v31h-62v78h279v-78z m-185 108v78c0 25 20 46 46 46 26 0 46-21 46-46v-78h-92z m154 78v-78h-30v78c0 42-35 77-78 77-43 0-78-35-78-77v-78h-30v78c0 59 48 108 108 108 60 0 108-49 108-108z m-108-248c26 0 46 21 46 46 0 26-20 47-46 47-26 0-46-21-46-47 0-25 20-46 46-46z m0 62c8 0 16-7 16-16 0-8-7-15-16-15-8 0-16 7-16 15 0 9 8 16 16 16z" horiz-adv-x="1000" />

<glyph glyph-name="paquete" unicode="&#xe82f;" d="M980 665c0 1 0 1 0 0 0 1 0 1 0 2 0 0 0 0 0 0 0 1 0 1 0 1 0 0 0 1 0 1 0 0-1 1-1 1 0 0 0 0 0 0l-38 98c-4 10-13 16-23 16h-70c-8 0-14-6-14-14 0-7 6-13 14-13h68l30-78h-287l-18 78h106c8 0 14 6 14 13 0 8-6 14-14 14h-123-138-293c-11 0-20-6-24-16l-38-98c0 0 0 0 0 0 0-1 0-1 0-2 0 0 0 0 0 0 0 0 0-1-1-1 0 0 0-1 0-1 0 0 0 0 0-1 0 0 0 0 0 0 0 0 0 0 0 0v-201c0-8 6-14 14-14s14 6 14 14v188h290v-209c0-8 5-15 12-19 3-1 6-2 9-2 5 0 10 2 13 6l73 64 73-64c6-6 15-7 22-4 8 4 13 11 13 19v209h290v-615c0-10-8-18-18-18h-251c0 0 0 0 0 0 0 1 0 3 0 4 24-7 49 6 58 29 5 12 5 26 0 38 0 1-1 2-2 3 0 0 0 0 0 1 0 1-1 2-2 3 0 0 0 0 0 0-1 1-1 2-2 3 0 0 0 0 0 0-1 1-2 2-2 3 0 0-1 0-1 0-1 1-1 2-2 3 0 0-1 0-1 0 0 1-1 2-2 2 0 0 0 0 0 0-1 1-2 2-3 2 0 0-1 1-1 1 0 1-2 1-2 2 0 0 0 0-1 0 6 5 11 11 13 19 5 12 5 25 0 37-4 11-12 19-22 25-2 0-3 1-5 2l-213 86 99 31c24 7 37 33 30 56-3 9-8 17-15 22-11 8-24 11-38 9 0 0 0 0 0 0-1 0-77-18-157-33-3-1-7-1-10-2-3-1-5-1-8-2-1 0-2 0-3 0-4-1-9-2-13-3-2 0-4 0-5 0-100-19-128-19-136-18 0 0 0 0 0 0 0 0 0 0 0 0 0 0 0 0-1 0 0 0 0 0 0 0 0 0-1 0-1 0l-2 1 2 7c3 7 3 14 0 21 0 1-1 3-2 5-3 4-7 8-12 10l-74 30c-7 2-14 2-21 0-7-3-12-8-15-15l-90-220c-6-14 1-30 15-35l73-30c4-2 7-2 11-2 11 0 21 6 25 16l1 2 17-7c0 0 0 0 0 0 16-7 31-16 44-27 2-2 4-5 6-7 3-3 5-5 7-7 1-2 2-3 3-4 19-24 44-42 72-53l19-8h-140c-10 0-18 8-18 18v35c0 8-6 14-13 14-8 0-14-6-14-14v-35c0-25 20-45 45-45h207l177-72c6-2 12-4 18-4 20 0 38 12 46 31 3 8 4 16 3 24 9-1 19 0 27 4 9 3 16 10 21 17h260c25 0 45 21 45 46l1 627c0 0 0 0 0 0z m-483 92h116l18-78h-152l18 78z m-46-78h-287l30 78h275l-18-78z m183-221l0 0-66 58c-4 4-8 6-13 6-5 0-10-2-14-6l-66-58v194h159v-194z m-513-317l-73 30 90 220 73-30-90-220z m547-83l-15 7c0 0 0 0 0 0 0 0 0 0 0 0 0 0 0 0 0 0l-164 67c-7 2-15-1-18-8-3-7 0-15 7-18l164-67c1 0 2 0 2-1 0 0 1 0 1 0 0 0 1 0 1-1 0 0 0 0 0 0 1-1 1-1 2-1 0 0 0 0 0 0 1-1 1-1 1-1 1-1 1-1 1-1 0 0 0 0 0-1 0 0 1 0 1-1 0 0 0 0 1 0 0-1 0-1 0-1 0-1 0-1 0-1 0 0 1 0 1-1 0 0 0-1 0-1 0 0 1 0 1 0 0-1 0-1 0-1 0-1 0-1 0-1 0-1 0-1 1-1 0-1 0-1 0-1 0-1 0-1 0-2s0 0 0-1c0 0 0-1 0-1 0 0 0-1 0-1 0-1 0-1 0-1 0-1 0-1 0-2 0 0 0 0 0-1 0 0 0-1-1-1 0 0 0 0 0-1 0 0 0-1 0-1 0 0-1 0-1-1 0 0 0 0 0-1 0 0 0 0 0 0-2-4-6-8-11-11-6-2-12-2-18 0l-30 12c0 0 0 0 0 0 0 0 0 0 0 0l-134 54c-7 3-15 0-18-7-2-8 1-16 8-18l133-55c0 0 1 0 1 0 0 0 0 0 0 0 11-4 16-17 12-28-4-11-17-17-28-12l-178 73c0 0 0 0 0 0l-84 34c-15 6-28 14-40 25-8 6-14 13-20 20-6 7-13 15-20 21-15 14-33 25-52 32 0 0 0 0 0 0l-17 7 34 83 32 79 3-1c2-1 5-2 14-2 10-1 28 0 60 5 21 3 48 7 78 13 1 0 2 0 2 0 2 1 3 1 5 1 1 1 2 1 3 1 2 0 3 0 4 1 2 0 3 0 5 1 1 0 2 0 3 0 2 1 4 1 6 2 0 0 2 0 2 0 3 0 6 1 9 2 79 15 155 32 159 33 0 0 1 0 1 0 9 1 18-4 20-12 1-3 1-6 1-9-2-6-6-11-12-13l-136-42c-6-2-10-7-10-13 0-5 3-11 8-13l249-101c6-3 10-7 12-12 3-5 3-11 0-17-2-5-6-9-11-12-3-1-6-1-9-1 0 0 0 0 0 0-1 0-1 0-2 0 0 0 0 0 0 0-1 0-1 0-2 0 0 0-1 0-1 0 0 0 0 0-1 1 0 0-1 0-1 0 0 0-1 0-1 1l-164 66c-7 3-15 0-18-7-3-7 1-15 8-18l199-81c1-1 2-2 4-2 3-3 6-6 8-10 2-5 2-10 0-15 0-1 0-1 0-2-1-1-1-1-1-2-1-1-2-3-3-4-1-1-2-1-2-2 0 0 0 0 0 0-6-4-12-6-19-5-1 1-3 1-4 2l-21 6z" horiz-adv-x="1000" />

<glyph glyph-name="cajaregalo" unicode="&#xe830;" d="M22 172c4-6 10-10 17-10h93v-273c0-11 9-19 19-19h698c10 0 19 8 19 19v273h93c7 0 13 4 17 10 3 6 2 14-1 20l-113 168c-3 6-9 9-15 9h-71c-11 0-19-9-19-19 0-10 8-19 19-19h61l87-131h-303l-88 131h74c10 0 19 9 19 19s-9 19-19 19c-22 0-437 0-458 0-6 0-12-3-15-9l-113-168c-4-6-4-14-1-20z m148-10h218c6 0 12 4 15 9l78 117v-380h-311v254z m427 9c3-5 9-9 15-9h218v-255h-311v381l78-117z m-436 160h304l-88-131h-303l87 131z m227 452c-16 23-42 47-85 47-60 0-103-48-103-107 0-65 52-107 132-172 14-11 28-23 44-35 3-3 7-5 12-5 4 0 8 2 12 5 15 12 29 24 43 35 80 65 132 107 132 172 0 59-43 107-103 107-43 0-69-24-84-47z m150-60c0-47-47-85-118-143-11-8-21-16-32-26-12 10-22 18-32 26-72 58-118 96-118 143 0 40 28 69 65 69 49 0 66-54 67-56 2-8 9-14 18-14 8 0 15 6 18 14 0 0 16 56 66 56 37 0 66-29 66-69l0 0z m187-268c5 0 9 1 13 5 10 8 19 17 29 25 52 44 90 76 90 124 0 45-33 81-75 81-27 0-45-14-57-28-11 14-29 28-56 28-42 0-75-36-75-81 0-47 37-80 90-124 9-8 18-16 29-25 3-4 7-5 12-5z m-94 154c0 21 13 43 38 43 27 0 37-34 38-36 2-8 9-14 18-14 8 0 16 6 18 14 0 2 10 36 38 36 24 0 37-22 37-43 0-31-28-55-76-96-6-5-12-9-18-15-6 6-11 10-17 15-47 41-76 65-76 96l0 0z" horiz-adv-x="1000" />

<glyph glyph-name="garantia" unicode="&#xe831;" d="M921 672l-1 0c-146 26-284 78-410 155-6 4-14 4-20 0-125-77-262-129-407-155l-4 0c-9-2-16-10-16-19v-245c0-126 43-248 122-345 78-98 189-166 311-193 1 0 2 0 4 0 1 0 2 0 4 0 122 27 232 95 310 193 79 97 122 220 122 345v246c0 8-6 16-15 18z m-22-264c0-237-168-447-399-500-231 53-399 262-399 500v230c142 26 276 77 399 151 123-74 258-125 399-151v-230z m-403-414l-1 0c-10-2-16-12-13-22 2-9 10-14 18-14 2 0 3 0 5 0l1 0c10 3 16 13 13 23-3 10-13 16-23 13z m67 24c-9-4-13-15-9-24 3-7 10-11 17-11 3 0 5 0 8 1 81 37 149 96 197 171 50 76 76 163 76 253v176c0 10-8 19-19 19s-19-9-19-19v-176c0-166-98-320-251-390z m-377 390v161c85 21 168 51 247 88 9 5 13 16 9 25-4 9-16 13-25 9-81-39-166-69-254-89-8-2-14-9-14-18v-176c0-20 1-40 4-60 1-10 9-17 18-17 1 0 2 0 3 0 10 1 17 11 16 21-3 19-4 38-4 56z m304 321c-9-5-12-17-7-26 4-6 10-9 17-9 3 0 6 0 9 2l0 0c0 0 0 0 0 0 9 5 12 16 7 26-5 9-16 12-26 7l0 0z m-21-131l-21-17c-3-2-6-3-10-2l-26 5c-23 4-46-8-55-29l-11-25c-2-3-4-6-8-7l-25-7c-23-7-37-28-35-52l2-27c0-4-2-7-4-10l-20-19c-16-16-19-42-7-62l14-23c2-3 3-7 1-10l-8-27c-7-22 2-46 22-58l23-14c3-2 5-4 6-8l4-27c4-23 23-40 47-41l26-1c4 0 7-2 10-5l16-22c10-12 24-19 40-19 7 0 14 1 20 5l24 11c4 1 8 1 11 0l24-11c21-10 46-4 60 14l17 22c2 3 5 5 9 5l27 1c23 1 42 18 46 41l4 27c1 4 3 7 6 8l23 14c20 12 29 36 22 58l-8 27c-1 3-1 7 1 10l14 23c13 20 10 46-7 62l-20 19c-2 3-4 6-3 10l2 27c1 24-13 45-36 52l-26 7c-3 1-6 4-7 7l-11 25c-9 21-32 33-55 29l-26-6c-4 0-7 1-10 3l-21 17c-17 14-43 14-61 0z m39-29l20-17c12-9 27-13 41-10l26 5c6 1 11-2 14-7l11-25c6-13 17-23 31-28l26-7c5-2 9-7 9-13l-2-27c-2-15 4-29 14-39l20-19c4-4 5-11 2-16l-14-23c-8-13-10-28-5-41l8-27c2-5 0-11-5-14l-23-14c-13-8-21-20-24-35l-4-26c-1-6-6-10-12-10l-27-2c-14 0-28-8-37-19l-16-22c-4-4-10-6-15-3l-24 11c-13 6-29 6-42 0l-24-11c-5-3-12-1-15 3l-16 22c-9 11-23 19-37 19l-27 2c-6 0-11 4-12 10l-4 26c-3 15-11 27-24 35l-23 14c-5 3-7 9-5 14l8 27c5 14 3 28-5 41l-14 23c-3 5-2 12 2 16l20 19c10 10 15 24 14 39l-2 27c0 6 4 11 9 13l26 7c14 5 25 15 31 28l11 25c2 4 6 7 11 7 1 0 2 0 2 0l26-5c15-3 30 0 41 10l21 16c3 4 9 4 14 1z m-88-194c-10 10-26 10-36 0s-10-25 0-35l70-71c10-10 26-10 36 0l126 126c10 10 10 26 0 36-10 10-26 10-36 0l-108-108-52 52z" horiz-adv-x="1000" />

<glyph glyph-name="envio-rapido" unicode="&#xe832;" d="M957 823c0 0 0 0 0 0l0 0c-5 6-12 7-12 7-3 0-5 0-9-1l-873-273c-17-6-17-30-1-36l286-107-35-248c0 0 0 0 0 0-2-15 13-26 27-19l222 111 204-256c10-13 30-8 34 8l161 798c1 6-1 12-4 16z m-831-287l699 219-459-309-240 90z m260-122l360 243-278-256c0 0 0 0 0 0 0-1 0-1-1-1 0 0 0 0-1-1 0 0 0 0 0-1 0 0 0 0-1 0 0 0 0 0 0-1l-104-156 25 173z m0-203l97 145 55-70-152-75z m385-155c-12 15-253 316-264 330l406 372-142-702z m-603-30l-124-124c-7-7-7-19 0-26s20-8 27 0l123 123c8 7 8 19 0 27-7 7-19 7-26 0z m188 0l-124-124c-8-7-8-19 0-26s19-8 26 0l124 123c7 7 7 19 0 27-7 7-19 7-26 0z m-188 187l-124-123c-7-8-7-20 0-27 8-7 20-7 27 0l123 124c8 7 8 19 0 26-7 7-19 7-26 0z" horiz-adv-x="1000" />

<glyph glyph-name="envio" unicode="&#xe833;" d="M221 87h-124c-8 0-15-7-15-16v-62c0-8 6-15 15-15h124c9 0 16 6 16 15v62c0 9-7 16-16 16z m-15-62h-93v31h93v-31z m758 186h-325v170c0 9-7 16-15 16h-588c-9 0-16-7-16-16v-495c0-9 7-16 16-16h929c8 0 15 7 15 16v309c0 9-7 16-16 16z m-216-181l-175 150h350l-175-150z m-202 132l142-122-142-121v243z m166-142l26-22c2-3 6-4 10-4s7 1 10 4l26 22 138-119h-350l140 119z m96 20l141 122v-243l-141 121z m-277 171c-9 0-16-7-16-16v-232h-464v309h217v-139c0-6 3-12 9-14 6-3 13-1 17 3l36 36 35-36c3-3 7-4 11-4 2 0 4 0 6 1 6 2 10 8 10 14v139h216v-62h-77z m-232 155h62v-195l-20 20c-6 6-16 6-22 0l-20-20v195z m309-62h-216v62h216v-62z m-340 62v-62h-217v62h217z m-217-434h464v-31h-464v31z m433 845v-210h31v210l51-51 22 22-77 78c-6 6-16 6-22 0l-78-78 22-22 51 51z m310-108v-211h31v211l51-51 22 22-78 77c-6 6-16 6-22 0l-77-77 22-22 51 51z m-619 0v-211h31v211l50-51 22 22-77 77c-6 6-16 6-22 0l-77-77 22-22 51 51z m309-133h31v-31h-31v31z" horiz-adv-x="1000" />

<glyph glyph-name="spin4" unicode="&#xe834;" d="M498 850c-114 0-228-39-320-116l0 0c173 140 428 130 588-31 134-134 164-332 89-495-10-29-5-50 12-68 21-20 61-23 84 0 3 3 12 15 15 24 71 180 33 393-112 539-99 98-228 147-356 147z m-409-274c-14 0-29-5-39-16-3-3-13-15-15-24-71-180-34-393 112-539 185-185 479-195 676-31l0 0c-173-140-428-130-589 31-134 134-163 333-89 495 11 29 6 50-12 68-11 11-27 17-44 16z" horiz-adv-x="1001" />

<glyph glyph-name="flechaabajo" unicode="&#xe834;" d="M980 771c0 0 0 0 0 0-1 4-2 8-5 11-1 0-1 0-1 0 0 0 0 0 0 0 0 0 0 0 0 1-1 0-1 0-1 1-3 2-7 4-10 4 0 0 0 0-1 0-1 0-2 1-3 1-1 0-3 0-4-1 0 0 0 0 0 0-4 0-7-2-10-4-1-1-1-1-1-1 0 0 0 0 0 0 0 0 0 0 0-1l-444-444-445 444c-8 8-21 8-29 0 0 0 0 0 0 0 0 0 0 0 0 0-8-8-8-21 0-29l459-460c4-4 9-6 15-6 5 0 10 3 14 6l460 460 0 0c1 1 1 1 1 1 3 3 5 6 5 10 0 0 0 0 0 0 0 2 0 3 0 4 0 1 0 2 0 3z m-36-364l-444-445-445 444c-8 8-21 8-29 0 0 0 0 0 0 0 0 0 0 0 0 0-8-8-8-21 0-29l459-460c4-4 9-6 15-6 5 0 10 3 14 7l460 459c8 9 8 21 0 29s-21 9-30 1z" horiz-adv-x="1000" />

<glyph glyph-name="pdf" unicode="&#xe835;" d="M720 620c-41 0-74 34-74 74v116h-456c-14 0-26-12-26-26v-868c0-14 12-26 26-26h621c14 0 25 12 25 26v704h-116z m-339-274c-11-10-27-14-50-14h-33v-51c0-30-36-30-36 0v138c0 16 7 22 23 22 20 0 62 1 78-3 44-12 44-71 18-92z m198-23c-6-31-26-54-58-59l-69-2c-19 0-23 8-23 26v131c0 16 7 22 22 22 22 0 60 2 79-3 46-12 59-70 49-115z m155 94c-4-3-8-4-14-4h-71v-46h60c22 0 22-27 0-27h-60v-59c0-26-23-26-31-17-3 4-5 10-5 17v138c0 16 7 22 22 22h85c20 0 20-18 14-24z m-411-3h-24v-55h-1c26 0 64-5 64 28 0 22-15 27-39 27z m166-3h-24v-121c15 0 40-1 52 3 34 12 32 78 20 99-11 17-27 19-48 19z m231 253h84l-115 115v-84c1-18 15-31 31-31z" horiz-adv-x="1000" />

<glyph glyph-name="bizum" unicode="&#xe836;" d="M366 361c0 0-1-1-2-2 0-17-1-35 0-52 0-14 8-21 22-21 13 0 21 7 22 21 0 5 0 11 0 17 1 32 4 40-42 37z m554 334h-840c-33 0-60-27-60-60v-570c0-33 27-60 60-60h840c33 0 60 27 60 60v570c0 33-27 60-60 60z m-758-235c22 0 32-17 23-32-8-13-17-26-27-38-8-9-21-10-30-4-8 7-12 19-6 29 9 13 18 26 28 38 4 5 10 6 12 7z m-82-1c0 12 10 22 23 22 12 0 21-9 21-22 0-13-10-23-22-22-12 0-22 10-22 22z m50-203c-7 6-15 9-19 15-6 9-3 18 3 26 22 30 44 60 66 90 11 14 21 29 32 43 8 11 22 14 32 6 10-8 12-21 3-33-32-45-65-89-97-134-5-5-12-7-20-13z m51-12c-9 6-12 18-6 28 9 13 18 26 28 38 3 4 10 6 12 7 21 0 32-17 23-32-8-14-17-26-27-39-7-9-21-9-30-2z m77-25c-12 0-22 10-22 22 0 12 10 21 22 21 14 0 22-7 22-20 0-14-9-23-22-23z m179 87c-1-29-21-46-52-46-30 0-50 18-50 47-1 38 0 76-1 115 0 9 4 16 14 16 10 0 14-6 15-16 0-11 0-22 0-34 12 0 23 0 33-2 26-2 40-18 40-44 1-12 1-24 1-36z m52-30c0-10-5-16-15-16-9 0-13 7-13 16 0 16 0 32 0 49 0 15 0 31 0 47 0 10 5 16 15 16 10 0 14-7 14-16-1-32-1-64-1-96z m-13 130c-9-2-18 7-17 16 0 10 6 16 15 16 10 0 16-6 16-15 1-11-5-16-14-17z m118-145c-22 0-45-1-67 0-15 1-21 12-12 25 15 20 29 41 44 61 3 4 5 8 10 14-14 0-26 0-37 0-9 0-17 2-17 13-1 10 7 13 17 13 19 0 39 1 58 0 6-1 14-3 16-7 2-5 0-14-3-19-15-22-31-43-46-64-2-3-4-6-7-11 16 0 29 0 43 0 9 0 15-3 15-12 0-9-6-13-14-13z m129 30c-3-22-27-33-54-31-25 2-42 18-44 43-1 12 0 24 0 37 0 0-1 0-1 0 0 10 0 22 0 32 1 10 5 16 15 16 9 0 14-7 14-16 1-21 0-41 1-62 0-16 6-23 18-24 14-2 24 4 25 18 2 19 1 38 2 58 0 4 0 8 0 12 0 8 5 15 13 13 5-1 14-7 14-11 1-28 2-57-3-85z m197-16c0-9-6-15-15-15-10 0-13 7-13 16 0 20 0 40 0 59-1 19-8 27-22 27-12 0-19-6-19-18-1-21-1-43-1-64 0-10-2-19-14-20-10-1-15 6-15 20 0 20 1 40 0 60 0 15-7 22-19 22-14 0-21-7-21-23-1-19 0-39 0-59 0-10-3-19-15-20-12 0-14 9-14 20 0 18 0 38 0 56 0 20 4 37 22 46 19 10 39 10 58-2 1-1 2-1 1 0 14 3 24 8 35 8 29 3 48-12 51-42 2-24 1-48 1-71z" horiz-adv-x="1000" />

<glyph glyph-name="paypal" unicode="&#xe837;" d="M730 352c-6 0-10-2-14-3-4-1-7-3-9-6-2-3-3-6-3-10l4-8c3-2 7-3 12-3 4 0 8 1 12 3l8 4 4 5c1 5 4 16 4 18l-2 3c-1-1-11-2-16-3z m-99 66c-5 3-11 4-19 4l-7 0c-5 0-9-3-10-8l-7-28c-1-4 2-8 7-8h5c12 0 21 3 27 8 7 4 10 11 10 20 0 5-2 10-6 12z m-391 1c-4 3-10 4-19 4l-7 0c-5 0-9-4-10-8l-7-28c-1-5 2-9 7-9h5c11 0 21 3 27 8 6 4 10 11 10 20 0 6-2 10-6 13z m99-66c-5-1-10-2-14-3l-9-7c-2-3-3-6-3-10l4-8c3-2 7-3 12-3 4 0 7 1 11 3l9 4 3 5c1 5 4 16 4 18l-1 3c-1-1-11-2-16-2z m581 342h-840c-33 0-60-27-60-60v-570c0-33 27-60 60-60h840c33 0 60 27 60 60v570c0 33-27 60-60 60z m-655-328c-15-11-35-16-61-16h-6c-5 0-9-4-10-8l-8-32c-1-5-5-8-10-8h-22c-5 0-8 3-6 8l30 131c1 4 6 8 10 8l45 0c10 0 18 0 26-2 7-1 13-3 19-6 5-4 9-8 11-13 3-5 4-12 4-19 0-18-7-32-22-43z m134 17l-1-6-16-68c0-4-4-8-9-8l0 0h-3-17 0l0 0c-4 0-7 4-6 8v0l0 0 1 4 0 0-8-6-9-4-10-4c-3-1-8-1-14-1-9 0-17 2-23 7-5 6-8 12-8 21 0 9 2 16 6 22 4 6 10 11 18 15 8 4 17 6 27 8 11 1 20 2 32 3l3 2 0 3c0 5-2 8-6 10-4 2-11 3-20 3-6 0-13-1-20-3-7-2-9-3-12-4-2 0-6 0-4 6l2 11c0 0 2 8 10 10 4 1 4 1 11 2 9 1 17 2 26 2 18 0 31-2 39-7 8-4 12-11 12-21l-1-5z m34-134l-22 0c-5 0-6 3-3 8l19 33c0 0 1 2 0 13-3 19-18 102-18 102-1 5 2 9 7 9l19 0c6 0 11-4 11-9l10-58 4 0c2 6 34 59 34 59 2 4 8 8 13 8 0 0 21 0 26 0 8 0 0-12 0-12l-86-145c-3-5-9-8-14-8z m223 116c-15-11-35-16-62-16h-6c-4 0-9-4-10-8l-7-32c-1-4-6-8-11-8l-21 0c-5 0-8 4-7 8l31 132c1 4 5 8 10 8l45 0c10 0 18-1 26-2 7-2 13-4 18-7 6-3 10-8 12-13 3-5 4-12 4-19 0-18-7-32-22-43z m134 17l-1-5-16-68c-1-4-5-8-9-8l0 0h-4c-4 0-14 0-16 0h0l0 0c-4 0-7 4-6 8l0 0 0 0 1 3 0 0-8-5-9-5-10-4c-4-1-8-1-14-1-9 0-17 3-23 8-6 5-9 12-9 20 0 9 2 16 6 22 5 6 11 12 19 15 7 4 17 6 27 8 10 1 20 3 32 3l3 2 0 4c0 4-2 8-6 9-5 2-11 3-20 3-6 0-13-1-20-3-7-1-9-3-13-4-2 0-6-1-4 6l2 11c0 0 2 8 10 10 4 1 5 1 11 2 9 1 17 2 26 2 18 0 31-2 39-7 8-4 12-11 12-21l0-5z m68 57l-28-130-2-2c-1-4-5-7-9-7h-20l0 1c-4 0-7 3-6 7l0 0 1 4 27 122 1 5 1 1c1 4 5 7 9 7h19c6 1 9-3 7-8l0 0z" horiz-adv-x="1000" />

<glyph glyph-name="spin5" unicode="&#xe838;" d="M462 850c-6 0-11-5-11-11l0-183 0 0c0-6 5-11 11-11l69 0c1 0 1 0 1 0 7 0 12 5 12 11l0 183 0 0c0 6-5 11-12 11l-69 0c0 0 0 0-1 0z m250-47c-4 1-8-2-10-5l-91-158 0 0c-4-6-2-13 4-16l60-34c0-1 0-1 0-1 6-3 13-1 16 4l91 158c3 6 2 13-4 16l-61 35c-1 1-3 1-5 1z m-428-2c-2 0-4-1-6-2l-61-35c-5-3-7-10-4-16l91-157c0 0 0 0 0 0 3-6 10-8 16-5l61 35c5 4 7 11 4 16l-91 157c0 1 0 1 0 1-2 4-6 6-10 6z m620-163c-2 0-4 0-6-1l-157-91c0 0 0 0 0 0-6-3-8-10-5-16l35-61c4-5 11-7 16-4l157 91c1 0 1 0 1 0 6 3 7 11 4 16l-35 61c-2 4-6 6-10 5z m-810-4c-5 0-9-2-11-6l-35-61c-3-5-1-12 4-15l158-91 0 0c6-4 13-2 16 4l35 60c0 0 0 0 0 0 3 6 1 13-4 16l-158 91c-2 1-4 2-5 2z m712-235l0 0c-6 0-11-5-11-11l0-69c0-1 0-1 0-1 0-7 5-12 11-12l183 0 0 0c6 0 11 5 11 12l0 69c0 0 0 0 0 1 0 6-5 11-11 11l-183 0z m-794-5l0 0c-7 0-12-5-12-12l0-69c0 0 0 0 0-1 0-6 5-11 12-11l182 0 0 0c6 0 11 5 11 11l0 69c0 1 0 1 0 1 0 7-5 12-11 12l-182 0z m772-153c-4 0-8-2-10-6l-34-60c-1 0-1 0-1 0-3-6-1-13 4-16l158-91c6-3 13-1 16 4l35 61c3 5 1 12-4 15l-158 92 0 0c-2 1-4 1-6 1z m-566-5c-1 0-3 0-5-1l-157-91c0 0-1 0-1 0-5-3-7-10-4-16l35-61c3-5 10-7 16-4l157 91c0 0 0 0 0 0 6 3 8 10 5 16l-35 61c-3 3-7 6-11 5z m468-121c-2 0-4 0-6-1l-61-35c-5-4-7-11-4-16l91-157c0-1 0-1 0-1 3-6 11-7 16-4l61 35c5 3 7 10 4 16l-91 157c0 0 0 0 0 0-2 4-6 6-10 6z m-367-2c-4 0-8-2-10-6l-91-158c-3-6-1-13 4-16l61-35c5-3 12-1 15 4l92 158 0 0c3 6 1 13-5 16l-60 35c0 0 0 0 0 0-2 1-4 1-6 2z m149-58c-7 0-12-5-12-11l0-183 0 0c0-6 5-11 12-11l69 0c0 0 0 0 1 0 6 0 11 5 11 11l0 183 0 0c0 6-5 11-11 11l-69 0c-1 0-1 0-1 0z" horiz-adv-x="1000" />

<glyph glyph-name="todotecperu" unicode="&#xe838;" d="M838 672h2l0 1 0 1-6 6 1-2 3-6z m-336-360c-2 5-2 5-6 8-2-4-3-6-2-11h6l2 3z m-167 468h-6c3-3 3-2 6 0z m613-504h-5c-2-5-8-9-15-11-5-2-11-3-16-1 0 1 0 2 0 3-6 26-19 52-24 80l1 3 5 25-6 42c3 15 2 32 8 47l10 14-4 14 2 20 1 15c5 0 6 0 8 1 1 0 2 0 5 2 1 6 3 7 6 11l-16 32h-2c1-13 8-21 4-32l-4-5h-4c-13 13-27 30-32 50 0 2-1 3-1 4l1 3c8-1 10-2 15 0l-1 3c-3 4-25 28-25 28-2 5 0 11-2 18-5-2-6-3-11 0l-10 13c-6-4-6-5-12-1-4 12-9 20-16 29 2 7 3 3 2 9l-4 2v10c-15 14-32 26-49 38-3 1-5 3-7 4v0l-2 1c0 0 1-1 1-1v-5l-1-2-6-1c-8 0-13 4-18 9l3 5c10 0 14-2 20-4-21 13-44 24-67 34 4-5 15-8 11-18-13-1-15-6-22-9l-14-1c-7-8 4-20-3-28-28 9-46 20-64 38v3c4 2 5 1 6 4l0 2-3 4-11-3c1 7 2 4 0 9l-9 1c-7 4-12 10-21 13-10 3-34-4-38 5l7 3-3 2c-18-2-50-17-58-13-5 3-13 6-18 10l3 2c15 0 29 1 43 7l-14 0-39-4-60-13-7-2 2-2h0l6-1-2-5c-3 1-6 2-9 2-7 1-12 0-23-4v-2l2-1c2 0 6-1 12-1 10-2 21-3 22-4l-3-9c-7 0-12 0-15-3l10-7c11 2 17 5 23 10 2-3 2-3 3-7l11 4 1 4c-3 7-5 7-11 11l1 2 6 3c9-10 30-32 42-13l-2 3-9 2 1 6 8 4 6-6c32 11 48-1 75-13 9-4 17-1 23-7l-1-4c-9-2-14 4-22 3v-1l1-4c6-2 10-3 12-10h-2c-5-2-9-4-16-4l-30 12v4l10 8-1 4c-15 3-22 11-41 6l-4-14c-32-5-58-20-80-36v-8c5-3 6-6 9-10 17 0 36-5 51-12-1-4-1-8 0-11 2-6 5-9 12-13l10 6c0 9-2 14 1 20 7 1 13 4 16 9l1 1 0 4-7 8c1 7 2 12 3 20 18 4 28-3 42-6l1-3c1-3 2-6 5-8l11-5c5 4 10 9 18 10l20-24c12-8 27-8 36-18 1-1 2-2 3-4-2-7-1-14 2-19 11-1 14-1 18-10l-4-5c-10 0-25-1-32 4 4 6 10 14 8 22l-3 2-16-9-15 1c-6-3-11-6-17-8 1 0 2-1 3-1-2-11-3-12 3-21 13-4 17 0 29 2v-1l-8-9c-10-2-18-6-25-10-3 0-3 0-4 1-1 1-1 1-3 2l4 5 5 4v1l-3 1c-12-4-32-9-40-18-3-5-2-10-6-14-24-12-17-10-33-28l-6 4-2-7 4-14c-10-14-34-24-43-39-2-2-3-4-4-7-4-19 12-31 8-49l-3-2-9 7c-2 12-6 26-13 35-17 0-30 8-47 2-3-3-3-5-4-9-22 2-42 6-54-13-4-5-5-10-3-17-9-35-9-52 17-73 10 1 23 4 30 9 1 7 4 15 7 20 6 2 15 4 23 1 0-3-1-7-2-10-3-14-9-28-12-41l1-1 34 0 10-11c-1-4-1-8-2-12-2-19 1-29 15-41 13 0 14 4 26 6l15-11h2c11 17 24 31 45 37l2-2c-4-4-5-6-4-12h1c7 2 14 9 23 5 17-11 31-10 51-6 1-1 2-3 3-4 2-4 4-7 6-11l7 2 1-6c20-1 18-16 31-23l20 0c14-1 24-12 30-25 2-6 4-12 5-19l-13-13 3-5c5 5 6 9 17 7l1-7c23 6 16-4 30-11l27-1c4-1 23-19 26-23 8-18-12-36-27-48-6-4-10-8-13-12-11-12-13-32-22-45-6-8-12-13-19-16-13-1-26-1-40-2 1-5 1-11 1-16l-2-1c-6-4-6-12-11-18-7-10-30-26-40-33-16-10-42-17-56-31-11-1-22-2-32-4-2 22 0 52 5 78 1 4 1 9 2 14 1 6 5 20 1 28-4 9-13 13-22 17-4 1-8 3-11 6-6 4-35 49-49 73-3 7-6 12-6 15 3 4 6 7 8 13-24 16 14 41 18 54 0 1 0 2 0 3 4 19-8 36-14 46-12 1-10-6-16-13-9 3-36 18-42 24-4 5-6 10-9 16-2 6-5 11-12 15-23-4-36 17-51 27 0 0-2 1-2 1-25-14-61 16-76 32 1 11-1 21-4 31-7 16-20 30-28 46-2 4-3 8-3 12-1 6-1 11-4 15h-1l-6-1c0-8 1-15 3-21 3-9 7-17 8-28l-3 1-10 12c0 4 0 7 0 10 0 30-22 55-17 88 2 16 21 44 33 62l6 7-2 1c2 4 3 8 3 9-7-1-6-1-11-3l23 54-5 2-2-2v14l3 2c-81-65-140-155-164-259-8-34-13-70-13-107 0-11 1-23 2-34 1-21 4-42 8-62 7-31 17-61 29-90 7-16 15-32 24-47 13-21 27-42 42-61 11-14 23-27 37-39 15-15 32-30 50-43 18-13 37-25 57-36 18-9 37-17 55-24 16-6 33-12 50-16l2 0c4-2 8-2 12-3 34-8 68-12 104-12 44 0 87 7 127 18l1 2c41 13 80 30 116 53 37 23 70 52 100 84 22 26 43 54 60 84 23 42 40 88 49 136l3 20c-4-3-13-4-16-4z m-524 507h-8l3 4c2 1 1 0 2 2h4l-1-6z m5-39l3 10c6-1 11-1 13-7l-16-3z m51 6h-3l-3-1v5c2-1 3-1 4-1 0-1 1-1 2-2v-1z m-33-362l-5 4 4 4 5-2c-1-4-1-3-4-6z m20 21h-16c-13 15-37 24-57 20 4 3 10 6 15 9 22-1 48-15 60-26l-2-3z m49-15c-13 2-24-5-28 4-2 2-3 5-3 10 8 0 13-1 19-3 5-1 10-3 17-5-2-5-1-4-5-6z m27-4c-4 1-3 1-6 3v1l1 1h4l2-2-1-3z m-341 48l-3 1-7 12 2 6 9-17-1-2z m147 318l-1 8c-6-1-10-2-13 0-1 0-1 0-2 1v7l-12 4-23-14v-1c12 0 20-3 28-4 8-2 14-3 23-1z" horiz-adv-x="1000" />

<glyph glyph-name="spin6" unicode="&#xe839;" d="M855 9c-189-190-520-172-705 13-190 190-200 494-28 695 11 13 21 26 35 34 36 23 85 18 117-13 30-31 35-76 16-112-5-9-9-15-16-22-140-151-145-379-8-516 153-153 407-121 542 34 106 122 142 297 77 451-83 198-305 291-510 222l0 1c236 82 492-24 588-252 71-167 37-355-72-493-11-15-23-29-36-42z" horiz-adv-x="1000" />

<glyph glyph-name="map" unicode="&#xe839;" d="M984 600q16-10 16-30l0-584q0-20-16-30-8-6-16-6t-18 6l-216 136-216-136q-18-10-34 0l-218 136-216-136q-16-10-34 0-16 10-16 30l0 584q0 20 16 30l234 146q18 10 34 0l216-136 218 136q16 10 32 0z m-750-450l0 506-168-104 0-506z m234-104l0 506-168 104 0-506z m234 104l0 506-170-104 0-506z m232-104l0 506-168 104 0-506z" horiz-adv-x="1000" />

<glyph glyph-name="diners" unicode="&#xe83a;" d="M920 695h-840c-33 0-60-27-60-60v-570c0-33 27-60 60-60h840c33 0 60 27 60 60v570c0 33-27 60-60 60z m-158-345c0-114-94-207-208-207h-108c-114 0-208 93-208 207v0c0 114 94 207 208 207h108c114 0 208-93 208-207l0 0z m-314 190c-105 0-190-85-190-190 0-104 85-189 190-189 105 0 190 85 190 189 0 105-85 190-190 190z m-43-302c-45 18-77 61-77 113 0 51 32 95 77 112v-225z m86 0v225c45-17 77-61 77-113 0-51-32-94-77-112z" horiz-adv-x="1000" />

<glyph glyph-name="unionpay" unicode="&#xe83b;" d="M716 370c8-2 17 6 21 18 5 13 2 24-5 27-8 2-17-6-21-18-4-13-2-24 5-27z m-56 62c4 3 6 8 8 14 0 2 0 3 0 4 0 0 0 2 0 2 0 5-1 8-5 11-3 2-9 3-16 3h-22l-8-39h26c7 0 13 1 17 5z m-30-224h20l5 18h-20l-5-18z m18 65c0 0 12 5 23 6 2 9 5 19 5 19h-20l-8-25z m-10-37c0 0 13 7 22 8 3 10 6 18 6 18h-21l-7-26z m-205 136c6 0 11 2 15 6 4 4 7 11 8 20 1 1 1 2 1 4 0 1 0 3 0 4 0 5-1 9-4 12-2 2-6 4-11 4-6 0-11-2-15-6-4-5-7-12-9-20 0-2 0-3 0-4 0-2 0-3 0-4 0-6 1-9 4-12 2-3 6-4 11-4z m501 272l-226 0c0 0 0 0 0 0 0 0 0 0 0 0-32-1-70-26-77-57l-20-89h-19l20 89c7 31 46 55 77 57 0 0 0 0 0 0h-90l-161 0c0 0-1 0-1 0-31-1-71-26-78-57l-20-89h-21l20 89c7 31 46 56 77 57l-207 0c-32 0-72-26-79-57l-108-474c-1-3-1-5-1-8v-9c2-23 20-39 44-40h210c-31 1-50 26-44 57l25 110h22l-25-110c-7-31 12-56 43-57h253c-31 1-50 26-43 57l8 37h19l-8-37c-8-31 12-56 43-57h238c30 2 60 26 67 57l107 474c7 31-13 57-45 57z m-714-279c-11-8-26-12-44-12-17 0-29 4-37 13-6 6-8 14-8 23 0 4 0 8 1 12l19 92h29l-19-91c0-2-1-4-1-6 0-5 2-9 4-12 4-4 9-7 17-7 9 0 16 2 22 7 5 4 9 10 11 18l19 91h29l-20-92c-4-15-11-27-22-36z m115 46l-11-56h-21l10 51c1 5 1 9-1 12-2 2-5 3-9 3-5 0-10-1-13-5-4-3-6-8-8-14l-9-47h-21l16 82h21l-3-12 3 3c7 8 15 11 24 11 9 0 15-3 19-8 4-4 5-11 3-20z m371 18c18 8 27 3 37-5l9 7 23 2-17-77-26 0-4 5c-66-29-46 57-22 68z m46-124l-4-16h-20c-7-1-10 2-11 8l-1 21h26l2-10c0-2 1-3 4-3h4z m-150 183h59c11 0 20-2 26-7 6-5 9-13 9-22v-1c0-2 0-4 0-6 0-2-1-4-1-6-3-13-9-23-18-31-10-7-21-11-33-11h-32l-10-48h-27l27 132z m-100-50h20l-2-12 2 3c7 7 15 10 24 10 9 0 15-2 19-7 3-5 5-12 3-21l-11-56h-21l10 51c1 5 1 9-1 11-1 3-5 4-9 4-5 0-10-2-13-5-4-3-6-8-7-14l-10-47h-20l16 83z m-7-131l-4-15h-39c-4-7-10-10-17-10h-20l4 16h4c4 0 6 1 7 4l11 15h27l-6-10h33z m-127 49h-23l18 82h22l-17-82z m20 92h-22l4 20h23l-5-20z m9-58c0 2 0 4 1 6 2 13 8 24 17 32 9 8 19 11 31 11 10 0 18-3 24-8 6-6 9-14 9-23 0-2 0-4 0-6-1-2-1-4-1-6-3-13-8-24-17-31-9-8-19-12-32-12-10 0-18 3-24 9-6 5-9 13-9 22 0 2 0 4 1 6z m66-208h-44c-9 0-11 5-9 14l8 31h-18l5 17h18l4 16h-17l4 16h72l-4-16h-29l-4-16h28l-5-17h-28l-6-24c-2-4 0-6 6-5h23l-4-16z m116 48c-3-8-8-12-18-13h-12l0-17c-1-3 2-4 7-4h12l-4-14h-28c-8 0-12 4-12 12l2 46h24l-1-10h7c3 0 4 1 4 3l2 7h20l-3-10z m-15 14h-52l-12-44c-1-3 0-4 3-4h10l-4-14h-25c-10 0-14 3-13 9l34 126h24l-1-10c0 0 14 10 26 10h46l-18-63c-1-6-7-10-18-10z m110-54l-2-8h-27l2 8h-52l5 18h5l26 90h-5l5 19h28l-1-7c0 0 14 7 24 7 10 0 34 0 34 0l-6-19h-5l-25-90h5l-5-18h-6z m114 76h-27l-5-16h27l-5-17h-29l-7-10h14l4-21c0-2 2-2 5-2h4l-5-17h-16c-8-1-12 2-12 8l-4 19-14-20c-3-6-8-8-14-8h-24l5 17h7c4 0 6 2 8 4l21 30h-27l5 17h29l5 16h-29l5 18h83l-4-18z m31 74c-9-19-17-30-21-34-5-5-15-17-38-16l2 14c20 6 30 33 36 45l-7 89 15 0h13l1-56 24 56h24l-49-98z m-302-80h37c3 0 4 1 4 4l3 9h-41l-3-13z m6 23c0 0 7 5 18 5 11 0 24 0 24 0l3 12h-41l-4-17z" horiz-adv-x="1000" />

<glyph glyph-name="jbc" unicode="&#xe83c;" d="M469 694l-1 0c0 0-1 0-1 0-1 0-1 0-1 0-1 0-1 0-2 0 0 0 0 0-1 0l-1 0c0 0-1 0-1 0-1 0-1 0-1 0l-2 0-1 0c0 0-1 0-1 0s-1 0-1 0c-1 0-1 0-1 0l-2-1-1 0c0 0-1 0-1 0 0 0-1 0-1-1-1 0-1 0-1 0l-2 0c0 0 0 0-1-1 0 0-1 0-1 0s-1 0-1-1c-1 0-1 0-1 0l-2 0c0 0 0 0-1-1 0 0-1 0-1 0 0 0-1-1-1-1-1 0-1 0-1 0l-2 0c0 0 0-1-1-1 0 0-1 0-1 0 0 0-1-1-1-1-1 0-1 0-1 0-1 0-1 0-2 0 0 0 0-1-1-1l-1 0c0 0-1-1-1-1-1 0-1 0-1 0-1 0-1 0-2 0 0 0 0-1-1-1 0 0-1 0-1 0 0 0-1-1-1-1l-3-1c0 0 0 0-1 0 0 0-1-1-1-1 0 0-1 0-1 0-1 0-1-1-1-1-1 0-1 0-2-1s0 0-1 0c0-1-1-1-1-1 0-1-1-1-1-1-1 0-1 0-1-1-1 0-1 0-2-1 0 0 0 0-1 0 0-1-1-1-1-1 0-1-1-1-1-1-1 0-1 0-1-1-1 0-1 0-2-1 0 0 0 0-1 0 0-1-1-1-1-1 0-1-1-1-1-1-1 0-1 0-1-1-1 0-1-1-2-1 0 0 0 0-1 0s-1-1-1-1c0-1-1-1-1-1-1-1-1-1-1-2-1 0-1 0-2-1 0 0 0-1-1-1 0 0-1-1-1-1 0-1-1-1-1-1-1-1-1-1-1-2-1 0-1 0-2-1 0 0 0-1-1-1 0 0-1-1-1-1 0-1-1-1-1-1-1-1-1-1-1-2-1 0-1 0-2-1 0-1 0-1-1-2 0 0-1-1-1-1 0-1-1-2-1-2-1 0-1-1-1-2-1 0-1-1-2-1 0-1 0-1-1-2 0 0-1-1-1-2 0-1-1-1-1-2-1-1-1-1-1-2-1-1-1-1-2-2 0-1 0-1-1-2 0-1-1-2-1-3 0 0-1-1-1-2-1-1-1-2-1-3-1-1-1-2-2-3 0-1 0-2-1-3 0-1-1-2-1-3 0-2-1-3-1-4-1-2-1-4-1-5-2-8-3-15-3-23v-150c1 0 2 1 3 2 0 0 0 0 1 0 0 1 1 1 1 1 0 1 1 1 1 1 1 0 1 0 1 1 1 0 1 0 2 1 0 0 0 0 1 0l1 1c0 1 1 1 1 1l1 1c1 0 1 0 2 1 0 0 0 0 1 0 0 1 1 1 1 1 0 1 1 1 1 1 1 0 1 0 1 1 1 0 1 0 2 1l1 0 1 0c0 0 1 1 1 1 1 0 1 0 1 0l2 1 1 0 1 0c0 0 1 1 1 1l1 0 2 1 1 0 1 0 1 1 1 0 2 1 1 0 1 0c0 0 1 1 1 1l1 0c1 0 1 1 2 1s0 0 1 0l1 0 1 1c1 0 1 0 1 0l2 1c0 0 0 0 1 0l1 0 1 1 3 1 1 0 1 0 1 1 1 0 2 1 1 0 1 0 1 1 1 0 2 1 1 0 1 0 1 1 1 0 3 1 1 0 1 0 1 1 2 0 1 1 1 0 1 0 1 0 2 0 1 0 1 0 1 0 1 0 2 0 1 0 1 0 1 0 1 0 2 0 1 0 1 0 1 0 1 0 2 0 1 0 1 0 1 0 1 0 2 0 1 0 1 0 1 0 1 0 2 0 1 0 1 0 1 0 1 0 2 0 1 0 1 0 1 0 1 0 2 0 1 0 1 0 1 0 1 0 2 0 1 0h1l1 0 3 0h1l1 0h12l1 0h1l2 0 1 0h1l1 0h1l2 0 1 0 1 0 1 0 1 0 2 0 1 0 1 0h0l1 0 1 0 1 0 1 0 2 0 2 0 1 0 1 0 2 0 1 0 1 0 1 0 1 0 2 0 1 0 1 0 1 0 1 0 2 0 1 0 1 0 1 0 1 0 2 0 1 0 1 0 1 0 1 0 2 0 1 0 1 0 1 0 1 0 2 0 1 0 1 0 1 0 1 0 2 0 1 0 1 0 1 0 1 0 2 0 1 0 1 0 1 0 1 0 2 0 1-1 1 0 1 0 1 0 2 0 1 0 1-1 1 0 1 0 2 0 1-1 1 0 1-1 1 0 2 0 1-1 1 0 1-1 1 0 2 0 1-1 1 0 1-1 1 0 2 0 1-1 1 0 1-1 1 0 2 0 1-1 1 0v-49l-1 1-1 0-2 1-1 0-1 0-1 1-1 0-2 1-2 1-1 0-1 1-2 0-1 0-1 1-1 0-1 1-2 0-1 0-9 2-1 0-1 1-2 0-1 1-1 0-1 0-1 1-2 0-1 1-1 0-1 0-1 1-2 0-1 1-1 0-1 0-1 1-2 0-1 1-2 0-1 1-2 0-1 1-1 0-1 0-1 1-2 0-1 1-1 0-1 0-1 1-2 0-1 1-1 0 2-2-1 0-1 0-2 1-1 0-1 0-1 0-1 0-2 0-1 0-1 0-1 0-1 0-2 0-1 0-1 0-1 0-1 0-2 0-1 0-1 0-2 0-1 0-1 0h0l-1 0-1 0-2 0-1 0-1 0-2 0-2 0h2l-1 0h-3l-1 0h-1l-1 0c-1 0-1 0-1 0-1 0-1 0-2 0l-1 0-1 0-1 0-1 0c-1 0-1 0-2 0 0 0 0 0-1 0l-1 0-1 0-1 0-2 0-1 0-1 0c0 0-1 0-1 0-1 0-1 0-1 0-1 0-1 0-2-1 0 0 0 0-1 0 0 0-1 0-1 0 0 0-1 0-1-1-1 0-1 0-1 0l-2-1c0 0 0 0-1 0 0 0-1 0-1 0 0 0-1-1-1-1l-1 0c-1 0-1-1-2-1 0 0 0 0-1 0 0 0-1 0-1 0 0 0-1-1-1-1-1 0-1 0-1 0-1 0-1-1-2-1 0 0 0 0-1 0 0 0-1 0-1 0 0 0-1-1-1-1-1 0-1 0-1 0-1 0-1-1-2-1 0 0 0 0-1 0 0 0-1 0-1 0 0 0-1-1-1-1-1 0-1 0-1 0-1 0-1-1-2-1 0 0 0 0-1-1 0 0-1 0-1-1s-1 0-1 0c-1-1-1-1-1-1-1-1-1-1-2-1 0 0 0 0-1-1 0 0-1 0-1-1 0 0-1 0-1 0-1-1-1-1-1-1-1-1-1-1-2-1 0 0 0-1-1-1 0 0-1-1-1-1 0 0-1 0-1-1-1 0-1-1-1-1-1 0-1-1-2-1s0-1-1-1c0-1-1-1-1-2 0 0-1 0-1-1-1 0-1-1-1-1-1-1-1-2-2-2 0 0 0-1-1-2 0 0-1-1-1-1 0-1-1-1-1-2-1-1-1-1-1-2-1-1-1-2-2-2 0-1 0-2-1-3 0 0-1-1-1-2 0-1-1-2-1-3-1-1-1-2-1-3-1-1-1-3-2-4 0-2 0-4-1-5 0-3-1-5-1-8 0-3 0-7 0-10 0-3 0-7 0-10 0-3 1-6 1-8 1-2 1-4 1-5 1-2 1-3 2-4 0-2 0-3 1-4 0 0 1-2 1-2 0-1 1-2 1-3 1-1 1-2 1-3 1 0 1-1 2-2 0 0 0-1 1-2 0 0 1-1 1-2 0 0 1-1 1-1 1-1 1-1 1-2 1 0 1-1 2-1 0-1 0-1 1-2 0 0 1-1 1-1 0-1 1-1 1-1 1-1 1-1 1-2 1 0 1 0 2-1 0 0 0-1 1-1 0 0 1-1 1-1 0-1 1-1 1-1 1 0 1-1 1-1 1 0 1 0 2-1 0 0 0 0 1 0 0-1 1-1 1-1 0-1 1-1 1-1 1 0 1 0 1-1 1 0 1 0 2-1 0 0 0 0 1 0 0 0 1-1 1-1 0 0 1-1 1-1 1 0 1 0 1 0 1-1 1-1 2-1 0 0 0-1 1-1 0 0 1 0 1 0 0 0 1 0 1 0 1-1 1-1 1-1 1 0 1 0 2 0 0 0 0-1 1-1 0 0 1 0 1 0 0 0 1 0 1 0 1 0 1-1 1-1 1 0 1 0 2 0 0 0 0-1 1-1 0 0 1 0 1 0 0 0 1 0 1 0 1 0 1-1 1-1 1 0 1 0 2 0 0 0 0-1 1-1 0 0 1 0 1 0 0 0 1 0 1 0 1 0 1-1 1-1l2 0c0 0 0 0 1-1 0 0 1 0 1 0 0 0 1 0 1 0 1 0 1 0 1-1 1 0 1 0 2 0 0 0 0 0 1-1 0 0 1 0 1 0 0 0 1 0 1 0l1 0 2 0 1 0 1 0 1 0c1 0 1 0 1 0 1 0 1 0 2 0l1 0 1 0 1 0 1 0c1 0 1 0 2 0h1l1 0h7l1 0h1l1 0 2 0 1 0 1 0 1 0 1 0 1 0 1 0 1 0 1 0 1 0 1 0 2 0 1 0 1 0 1 0 1 0 2 0 1 0 1 0 1 0 1 1 2 0 1 0 1 0 1 0 1 1 2 0 1 0 1 0 1 1 1 0 2 1 1 0 1 0 1 1 1 0 2 1 1 0 1 0 1 1 1 0 2 1 1 0 1 0 1 1 1 0 2 1 1 0 1 0 1 1 1 0 2 1 2 0 1 1 1 0 2 1 1 0 1 0 2 1 2 1 1 0 1 0 1 1 1 0 2 1 1 0 1 0 1 1 1 0 2 1 1 0 1 0 1 1 1 0 2 1 1 0 1 0 1 1 1 0 2 1 1 0 2 1v-48l-1-1-1 0-1 0-2-1-1 0-1-1-1 0-1 0-2-1-1 0-1-1-2 0-2-1-1 0-1-1-2 0-1 0-1-1-1 0-1-1-2 0-1 0-1 0-1-1-1 0-2-1-1 0-2 0-1 0-2 0-1 0-1-1-1 0-1 0-2 0-1 0-1-1-1 0-1 0-2 0-1 0-1 0-1 0-1 0-2 0-1 0-1 0-1 0-1 0-2 0-1 0-1 0-1 0-1 0-2 0-1 0-1 0-1 0-1 0-2 0-1 0-1 0-1 0-1 0-2 0-1 0-1 0-1 0-1 0-2 0-1 0-1 0-1 0-1 0-2 0-1 0-1 0-1 0-1 0h-2l-1 0h-1l-1 0-1 0-2 0h-1l-1 0h-1l-1 0h-2l-1 0h-4l-1 0h-12l-1 0h-3l-1 0h-1l-1 0h-1l-2 0-1 0-1 0h-1l-1 0-2 0-1 0-1 0-1 0-1 0-2 0-1 0-1 0-1 0-1 0-2 0-1 0-1 0-1 0-1 0-2 0-1 0-1 0-1 0-1 0-2 0-1 0-1 0-1 0-1 0-2 0-1 0-1 0-1 0-1 0-2 0-1 0-1 0-1 0-1 1-2 0-1 0-1 0-1 0-1 1-2 0-2 0-1 1-1 0-2 1-1 0-1 0-1 0-1 1-2 0-1 1-1 0-1 0-1 1-2 0-1 1-1 0-1 0-1 1-2 0-1 1-1 0c0 0-1 0-1 0-1 0-1 1-1 1l-1 0-1 1c-1 0-1 0-2 0 0 0 0 0-1 0l-1 1c0 0-1 0-1 0l-1 1-2 0-1 0-1 1-1 0-1 1-2 0-1 0-1 1-1 0c-1 0-1 1-1 1l-2 0-1 0-1 1c0 0-1 0-1 0-1 1-1 1-1 1l-2 0-1 0-1 1c0 0-1 0-1 1-1 0-1 0-1 0l-2 1c0 0 0 0-1 1 0 0-1 0-1 0l-1 1c-1 1-1 1-1 1l-2 1c0 0 0 0-1 1 0 0-1 0-1 0 0 1-1 1-1 1-1 1-1 1-1 1-1 0-1 0-2 1 0 0 0 0-1 1-1 0-1 1-2 2v-262h171c0 0 0 0 1 0h1c0 0 1 0 1 0l1 0 2 0c0 0 0 0 1 0 0 0 1 0 1 0l1 0c1 0 1 0 1 0 1 0 1 0 2 0 0 0 0 0 1 0 0 0 1 0 1 0l1 0c1 0 1 0 1 0 1 0 1 0 2 0s0 0 1 0l1 0 1 1c1 0 1 0 1 0 1 0 1 0 2 1l1 0 1 0c0 0 1 0 1 1 1 0 1 0 1 0 1 0 1 1 2 1 0 0 0 0 1 0l1 0 1 1c1 0 1 0 1 0 1 0 1 1 2 1 0 0 0 0 1 0l1 0 1 1c1 0 1 0 1 0 1 0 1 1 2 1 0 0 0 0 1 0 0 0 1 0 1 0l1 1 1 0 2 1c0 0 0 0 1 0 0 0 1 0 1 0 0 1 1 1 1 1 1 0 1 0 1 0 1 0 1 1 2 1 0 0 0 0 1 0l1 0 1 1 1 0c1 1 1 1 2 1 0 0 0 0 1 0 0 1 1 1 1 1 0 1 1 1 1 1 1 0 1 0 1 1 1 0 1 0 2 1 0 0 0 0 1 0 0 0 1 1 1 1 0 1 1 1 1 1 1 0 1 0 1 1 1 0 1 0 2 1 0 0 0 0 1 0 0 1 1 1 1 1 0 1 1 1 1 1 1 0 1 0 1 1 1 0 1 0 2 1 0 0 0 0 1 0 0 1 1 1 1 1 0 1 1 1 1 1 1 0 1 1 1 1 1 0 1 1 2 1l1 1c0 1 1 1 1 1 0 1 1 1 1 2 1 0 1 0 1 1 1 0 1 1 2 1 0 0 0 1 1 1 0 1 1 1 1 1 0 1 1 1 1 2 1 0 1 0 1 1 1 1 1 1 2 1 0 1 0 1 1 2 0 0 1 1 1 2 0 0 1 1 1 1 1 1 1 1 1 2 1 0 1 1 2 1 0 1 0 2 1 2 0 0 1 1 1 2 0 0 1 1 1 2 1 0 1 1 1 2 1 0 1 1 2 2 0 0 0 1 1 2 0 0 1 1 1 2 0 1 1 2 1 2 1 1 1 2 1 3 1 1 1 2 2 3 0 1 0 2 1 3 0 1 1 2 1 3 0 1 1 2 1 4 1 1 1 2 1 4 1 2 1 4 2 5 0 3 0 5 1 7 0 5 1 10 1 15v575h-172c2 0 2 0 1 0z m-317 0l-1 0c-1 0-1 0-1 0-1 0-1 0-2 0 0 0 0 0-1 0 0 0-1 0-1 0l-1 0c-1 0-1 0-1 0-1 0-1 0-2 0l-1 0-1 0c0 0-1 0-1-1-1 0-1 0-1 0-1 0-1 0-2 0l-1 0c0 0-1 0-1-1 0 0-1 0-1 0-1 0-1 0-1 0-1 0-1 0-2 0l-1-1c0 0-1 0-1 0 0 0-1 0-1-1-1 0-1 0-1 0-1 0-1 0-2 0l-1-1c0 0-1 0-1 0 0 0-1-1-1-1-1 0-1 0-1 0-1 0-1 0-2 0l-1-1-1 0c0 0-1-1-1-1-1 0-1 0-1 0-1 0-1 0-2 0l2 0-1 0-1-1c0 0-1 0-1 0-1 0-1-1-1-1-1 0-1 0-2 0 0 0 0 0-1 0 0 0-1-1-1-1 0 0-1 0-1 0l-1-1c-1 0-1 0-2 0 0 0 0 0-1 0 0 0-1-1-1-1s-1 0-1-1c-1 0-1 0-1 0-1 0-1 0-2-1 0 0 0 0-1-1 0 0-1 0-1 0 0-1-1-1-1-1-1-1-1-1-1-1-1 0-1 0-2-1 0 0 0 0-1-1 0 0-1 0-1 0 0-1-1-1-1-1l-1-1c-1 0-1 0-2-1 0 0 0 0-1-1 0 0-1 0-1 0 0-1-1-1-1-1-1-1-1-1-1-1-1 0-1-1-2-1 0 0 0-1-1-1 0 0-1 0-1 0 0-1-1-1-1-2-1 0-1 0-1 0-1-1-1-1-2-2 0 0 0 0-1-1l-1-1c0 0-1-1-1-1-1-1-1-1-1-1-1-1-1-1-2-2 0 0 0 0-1-1 0 0-1-1-1-1 0 0-1-1-1-1-1-1-1-1-1-2-1 0-1-1-2-1 0-1 0-1-1-2 0 0-1-1-1-2 0 0-1-1-1-1-1-1-1-1-1-2-1 0-1-1-2-1 0-1 0-2-1-2 0-1-1-1-1-2 0-1-1-1-1-2-1-1-1-1-1-2-1-1-1-2-2-2 0-1 0-2-1-2 0-1-1-2-1-3 0-1-1-1-1-2-1-1-1-2-1-3-1-1-1-2-2-3 0-1 0-2-1-3 0-1-1-2-1-4 0-1-1-2-1-4-1-1-1-3-1-4-2-8-3-16-3-24v-283c1 0 2-1 3-1l1 0 1-1 1 0 1-1 2 0 1 0 1-1 1 0 1-1 2 0 1 0 1-1 1 0 1-1 2 0 1 0 1-1 1 0 1-1 2 0 1 0 1-1 1 0 1-1 2 0 1 0 1-1 1 0 1-1 2 0 1 0 1-1 1 0 1-1 2 0 1 0 1-1 1 0 1-1 2 0 1 0 1-1 1 0 1-1 2 0 1 0 1-1 1 0 1-1 2 0 2-2 1 0 1-1 2 0 1-1 1 0 1 0 1-1 2 0 1 0 1 0 1-1 1 0 2 0 1 0 1 0 1 0 1 0 2 0 1 0 1 0 1 0 1 0 2 0 1 0 1 0 1 0 1 0h2l1 0 1 0 1 0 1 0 2 0h1l1 0h3l1 0c1 0 1 0 2 0 0 0 0 0 1 0 0 0 1 0 1 0 0 0 1 0 1 0 1 0 1 0 1 0s1 0 2 0l1 0c0 0 1 0 1 0 0 0 1 0 1 0l1 0c1 0 1 0 2 0 0 0 0 0 1 1 0 0 1 0 1 0 0 0 1 0 1 1 1 0 1 0 1 0 1 0 1 0 2 0 0 0 0 0 1 1 0 0 1 0 1 0 0 0 1 1 1 1 1 0 1 0 1 0 1 0 1 0 2 0 0 0 0 1 1 1 0 0 1 0 1 0 0 0 1 1 1 1 1 0 1 0 1 0 1 0 1 0 2 0 0 0 0 1 1 1 0 0 1 0 1 0 0 1 1 1 1 1 1 0 1 0 1 0 1 1 1 1 2 1 0 1 0 1 1 1 0 0 1 0 1 1 0 0 1 0 1 1 1 0 1 0 1 0 1 1 1 1 2 1 0 1 0 1 1 1 0 0 1 1 1 1 0 0 1 1 1 1 1 0 1 1 1 1 1 1 1 1 2 1 0 1 0 1 1 2 0 0 1 0 1 1s1 1 1 2c1 0 1 1 1 1 1 1 1 2 2 2 0 0 0 1 1 2 0 1 1 2 1 2 0 1 1 2 1 2 1 2 1 3 1 4 1 1 1 2 2 3 0 1 0 3 1 4 0 3 1 5 1 8 0 2 0 4 0 6v133h99v-134c0-4 0-7 0-11-1-3-1-5-1-8-1-2-1-4-2-5 0-2 0-3-1-4 0-2-1-3-1-4 0-1-1-2-1-3-1-1-1-1-1-3-1 0-1-1-2-2 0-1 0-2-1-2 0-1-1-2-1-2 0-1-1-2-1-2-1-1-1-2-1-2-1 0-1-1-2-2 0 0 0-1-1-1 0-1-1-1-1-2 0 0-1-1-1-1-1 0-1-1-1-1-1-1-1-1-2-1 0-1 0-1-1-2 0 0-1 0-1-1 0 0-1-1-1-1-1 0-1-1-1-1-1-1-1-1-2-1 0-1 0-1-1-2 0 0-1 0-1 0 0-1-1-1-1-1-1-1-1-1-1-1-1 0-1 0-2-1 0 0 0 0-1-1 0 0-1 0-1 0 0-1-1-1-1-1-1-1-1-1-1-1-1 0-1 0-2-1 0 0 0 0-1-1 0 0-1 0-1 0 0-1-1-1-1-1-1-1-1-1-1-1-1 0-1 0-2-1 0 0 0 0-1 0 0-1-1-1-1-1 0 0-1 0-1 0-1 0-1 0-1 0-1 0-1-1-2-1 0 0 0 0-1 0l-1-1-1 0c-1 0-1 0-1 0-1 0-1-1-2-1l-1 0-1-1c0 0-1 0-1 0-1 0-1 0-1 0-1 0-1-1-2-1l-1 0c0 0-1-1-1-1 0 0-1 0-1 0l-1 0-2-1c0 0 0 0-1 0l-1-1-1 0c-1 0-1 0-1 0l-2-1c0 0 0 0-1 0 0 0-1-1-1-1l-1 0c-1 0-1 0-1 0-1 0-1-1-2-1l-1 0c0 0-1 0-1-1 0 0-1 0-1 0l-1 0c-1 0-1 0-2-1l-1 0-1 0c0 0-1 0-1-1l-1 0-2 0-1-1c0 0-1 0-1 0 0 0-1 0-1 0l-1 0c-1 0-1 0-2-1l-1 0-1 0-1 1c-1 0-1 0-1 0l-2 0-1 0-1 0-1 0-1 0-2 0-1 0-1 0-1 0-1 0-2 0-1 0-1 0-1 0-1 0-2 0-1 0-1 0-1 0-1 0-1 0-1 0-2 0-1 0h-1l-1 0-1 0-2 0-1 0h-1l-1 0h-1l-2 0h-1l-1 0h-16l-1 0h-3l-1 0h1l-1 0h-1l-2 0h-1l-1 0-1 0-1 0-2 0 0 0-2 0-1 0-1 0-1 0-1 0-2 0-1 0-1 0-1 0-1 0-2 0-1 0-1 0-1 0-1 0-2 0-1 0-1 0-1 0-1 0-1 0-1 0-2 0-1 0-1 0-1 0-1 0-2 0-1 0-1 0-1 0-1 0-2 0-1 0-1 0-1 0-1 0-2 0-1 0-1 0-1 0-1 0-2 0-1 0-1 0-1 0-1 0-2 0-1 0-1 0-1 0-1 1-2 0-1 0-1 0-1 0-1 0-2 0-1 1-1 0-1 0-1 0-2 1-1 0-2 0-1 1-2 0-1 1-1 0-1 0-1 0-2 1-1 0-1 1-1 0-1 0-2 1-1 0-1 1-1 0-1 0c-2 1-3 1-3 1v-239h171c0 0 1 0 1 0h1c1 0 1 0 2 0l1 0 1 0c0 0 1 0 1 0 1 0 1 0 1 0l2 0c0 0 0 0 1 0 0 0 1 0 1 0 0 0 1 0 1 0 1 0 1 0 1 0l2 0c0 0 0 0 1 0 0 0 1 0 1 0 0 0 1 0 1 1l1 0c1 0 1 0 2 0 0 0 0 0 1 1 0 0 1 0 1 0l1 0 1 1c1 0 1 0 2 0 0 0 0 0 1 1 0 0 1 0 1 0 0 0 1 0 1 0l1 1 2 0c0 0 0 1 1 1 0 0 1 0 1 0 0 0 1 0 1 0l1 1 2 0c0 0 0 1 1 1 0 0 1 0 1 0 0 0 1 0 1 0 1 0 1 1 1 1 1 0 1 0 2 0l1 1 1 0c0 0 1 0 1 0 1 0 1 1 1 1 1 0 1 0 2 0 0 0 0 1 1 1 0 0 1 0 1 0 0 0 1 0 1 0l1 1c1 0 1 0 2 1 0 0 0 0 1 0 0 0 1 0 1 1 0 0 1 0 1 1 1 0 1 0 1 0 1 1 1 1 2 1 0 1 0 1 1 1 0 0 1 0 1 1 0 0 1 0 1 1 1 0 1 0 1 0 1 1 1 1 2 1 0 1 0 1 1 1 0 0 1 0 1 1 0 0 1 0 1 1 1 0 1 0 1 0 1 1 1 1 2 1 0 1 0 1 1 1 0 0 1 0 1 1 0 0 1 0 1 1 1 0 1 0 1 0 1 1 1 1 2 1 0 1 0 1 1 1 0 1 1 1 1 2 0 0 1 0 1 1 1 0 1 1 1 1 1 0 1 1 2 1 0 1 0 1 1 1 0 1 1 1 1 2 0 0 1 0 1 1 1 0 1 1 1 1 1 0 1 1 2 1 0 1 0 1 1 1 0 1 1 1 1 2 0 0 1 1 1 2 1 0 1 0 1 1 1 1 1 1 2 2 0 0 0 1 1 1 0 1 1 2 1 2 0 0 1 1 1 2 1 0 1 1 1 1 1 1 1 1 2 2 0 1 0 1 1 2 0 1 1 1 1 2 0 1 1 2 1 2 1 1 1 2 1 3 1 0 1 1 2 2 0 1 0 2 1 2 0 1 1 2 1 3 0 1 1 2 1 3 1 1 1 2 1 3 1 1 1 3 2 4 0 1 0 3 1 4 0 2 1 4 1 5 0 3 1 5 1 7 1 5 1 10 1 15v574h-173c-1 0-1 0-1 0z m805 0l0 0-169 0c-1 0-1 0-2 0l-1 0c0 0-1 0-1 0 0 0-1 0-1 0-1 0-1 0-1 0l-2 0-1 0c0 0-1 0-1 0 0 0-1 0-1 0l-1 0c-1 0-1 0-2 0 0 0 0 0-1 0 0 0-1 0-1 0 0 0-1 0-1 0l-1 0c-1 0-1 0-2 0 0 0 0 0-1 0 0 0-1 0-1-1l-1 0-1-1c-1 0-1 0-2 0 0 0 0 0-1 0 0 0-1 0-1-1l-1 0c-1 0-1 0-1-1-1 0-1 0-2 0 0 0 0 0-1 0 0 0-1-1-1-1 0 0-1 0-1 0l-1-1c-1 0-1 0-2 0 0 0 0 0-1 0 0 0-1-1-1-1 0 0-1 0-1 0l-1-1-2 0c0 0 0 0-1 0 0 0-1-1-1-1 0 0-1 0-1 0-1 0-1-1-1-1-1 0-1 0-2 0 0 0 0 0-1 0l-1-1c0 0-1 0-1 0-1 0-1-1-1-1s-1 0-2 0c0 0 0 0-1 0 0 0-1-1-1-1s-1 0-1-1c-1 0-1 0-1 0-1-1-1-1-2-1s0-1-1-1l-1-1c0 0-1 0-1-1l-1 0-2-1c0-1 0-1-1-1l-1-1c0 0-1 0-1-1-1 0-1 0-1 0l-3-2c0 0-1 0-1-1 0 0-1 0-1-1-1 0-1 0-1 0-1-1-1-1-2-1 0-1 0-1-1-1 0 0-1-1-1-1 0-1-1-1-1-1-1-1-1-1-1-2-1 0-1 0-2-1 0 0 0-1-1-1 0 0-1-1-1-1 0-1-1-1-1-1-1-1-1-1-1-2-1 0-1 0-2-1 0 0 0-1-1-1 0 0-1-1-1-1 0-1-1-1-1-1-1-1-1-1-1-2-1 0-1-1-2-2 0 0 0-1-1-1 0-1-1-1-1-2 0 0-1-1-1-1-1-1-1-2-1-2-1 0-1-1-2-2 0 0 0-1-1-2 0 0-1-1-1-2 0 0-1-1-1-2-1 0-1-1-1-2-1 0-1-1-2-2 0-1 0-2-1-2 0-1-1-2-1-3 0-1-1-2-1-3-1 0-1-2-1-2-1-2-1-2-2-4 0-1 0-2-1-3 0-1-1-3-1-4 0-2-1-3-1-5-2-8-3-15-3-23v-119h174l1 0 1 0 2 0 1 0 1 0 1 0 1 0 2 0 0 0 1 0 1 0 1 0 1 0 2 0 1 0 1 0 1 0 1 0 2 0 1 0c0 0 1 0 1 0l1 0c1 0 1 0 1-1 1 0 1 0 2 0l1-1c0 0 1 0 1 0 0 0 1 0 1 0l1-1c1 0 1 0 2 0 0 0 0-1 1-1 0 0 1 0 1 0 0 0 1 0 1 0 1 0 1-1 1-1 1 0 1 0 2 0 0 0 0-1 1-1s1 0 1 0c0 0 1 0 1 0s1-1 1-1c1 0 1 0 2 0 0 0 0-1 1-1 0 0 1 0 1 0 0 0 1 0 1 0 1 0 1-1 1-1 1 0 1 0 2 0 0-1 0-1 1-1 0 0 1 0 1-1 0 0 1 0 1-1 1 0 1 0 1 0 1-1 1-1 2-1 0-1 0-1 1-1 0 0 1 0 1-1 0 0 1 0 1-1 1 0 1 0 1 0 1-1 1-1 2-2 0 0 0 0 1-1 0 0 1-1 1-1 0 0 1-1 1-1 1-1 1-1 1-1 1-1 1-1 2-2 0 0 0-1 1-2 0 0 1-1 1-1 0-1 1-1 1-2 1-1 1-2 1-2 1-1 1-2 2-3 0 0 0-2 1-3 0-1 1-2 1-4 0-2 1-4 1-7 0-1 1-3 1-5 0-2 0-4-1-5 0-3 0-5-1-7 0-1-1-3-1-4-1-1-1-2-1-3-1-1-1-2-2-2 0-1 0-2-1-3 0-1-1-1-1-2 0 0-1-1-1-1-1-1-1-2-1-2-1 0-1-1-2-2 0 0 0 0-1-1 0 0-1-1-1-1 0 0-1-1-1-1-1-1-1-1-1-1-1-1-1-1-2-2 0 0 0 0-1 0 0-1-1-1-1-1 0-1-1-1-1-1-1 0-1 0-1-1-1 0-1 0-2-1 0 0 0 0-1 0 0-1-1-1-1-1 0-1-1-1-1-1-1 0-1 0-1-1-1 0-1 0-2-1 0 0 0 0-1 0 0 0-1 0-1 0 0-1-1-1-1-1-1 0-1 0-1 0-1 0-1-1-2-1 0 0 0 0-1 0 0 0-1 0-1 0 0 0-1-1-1-1-1 0-1 0-1 0-1 0-1-1-2-1 0 0 0 0-1 0 0 0-1 0-1 0 0 0-1-1-1-1-1 0-1 0-1 0-1 0-1-1-2-1 0 0 0 0-1 0 0 0-1 0-1 0l-1-1c-1 0-1 0-1 0l-2-1c0 0 0 0-1 0l-1 0-1 0v-1l1 0 1 0 1 0 2 0 1 0 1 0 1 0c1 0 1 0 1 0l2 0c0 0 0 0 1 0l1 0 1-1c1 0 1 0 1 0 1 0 1 0 2 0 0 0 0 0 1-1 0 0 1 0 1 0 0 0 1 0 1-1 1 0 1 0 1 0 1 0 1 0 2 0l1-1c0 0 1 0 1 0 0 0 1-1 1-1 1 0 1 0 1 0 1 0 1 0 2 0 0 0 0-1 1-1 0 0 1 0 1 0 0 0 1-1 1-1 1 0 1 0 1 0 1 0 1 0 2 0 0 0 0-1 1-1 0 0 1 0 1 0 0 0 1-1 1-1 1 0 1 0 1 0 1 0 1 0 2 0 0-1 0-1 1-1 0 0 1 0 1-1 0 0 1 0 1 0 1-1 1-1 1-1 1-1 1-1 2-1 0 0 0 0 1-1 0 0 1 0 1-1 0 0 1 0 1 0 1-1 1-1 1-1 1-1 1-1 2-1 0 0 0-1 1-1 0 0 1-1 1-1 0 0 1-1 1-1 1-1 1-1 1-1 1-1 1-1 2-2 0 0 0 0 1-1 0 0 1-1 1-1 0-1 1-1 1-2 1 0 1-1 1-2 1 0 1-1 2-2 0 0 0-1 1-2 0 0 1-1 1-2 0-1 1-2 1-3 1-1 1-2 1-3 1-2 1-4 2-6 0-2 0-5 0-7 0-3 0-5 0-7-1-2-1-4-2-6 0-1 0-2-1-4 0-1-1-2-1-3 0-1-1-1-1-2-1-1-1-2-1-2-1-1-1-1-2-2 0-1 0-1-1-2 0 0-1-1-1-1 0-1-1-1-1-2-1 0-1-1-1-2-1 0-1 0-2-1 0 0 0-1-1-1 0 0-1-1-1-1 0-1-1-1-1-1-1-1-1-1-1-1-1-1-1-1-2-1 0 0 0 0-1-1 0 0-1 0-1-1 0 0-1 0-1 0-1-1-1-1-1-1-1-1-1-1-2-1 0 0 0 0-1-1 0 0-1 0-1-1 0 0-1 0-1 0-1-1-1-1-1-1-1-1-1-1-2-1 0 0 0 0-1 0 0 0-1 0-1 0 0-1-1-1-1-1-1 0-1 0-1 0-1 0-1-1-2-1 0 0 0 0-1 0 0 0-1 0-1 0 0 0-1-1-1-1-1 0-1 0-1 0-1 0-1-1-2-1 0 0 0 0-1 0 0 0-1 0-1 0l-1 0c-1 0-1-1-1-1-1 0-1 0-2 0 0 0 0-1-1-1 0 0-1 0-1 0 0 0-1 0-1 0-1 0-1 0-1-1l-2 0c0 0 0-1-1-1 0 0-1 0-1 0l-1 0-1 0c-1 0-1 0-2 0 0 0 0 0-1 0 0 0-1 0-1 0l-1 0c-1 0-1 0-1 0-1 0-1 0-2 0l-1 0-1 0-1 0-1 0-2 0c0 0-1 0-1 0-1 0-1 0-1 0h-181v-240h171l1 0h1c1 0 1 0 2 0 0 0 0 0 1 0l1 0c0 0 1 0 1 0 1 0 1 0 1 0 1 0 1 0 2 0 0 0 0 0 1 0 0 0 1 0 1 0 0 0 1 0 1 0 1 0 1 0 1 0l2 0 1 0 1 0c0 0 1 0 1 0 1 0 1 0 1 1l2 0 1 1c0 0 1 0 1 0 0 0 1 0 1 0l1 1 2 0 1 1c0 0 1 0 1 0 0 0 1 0 1 0 1 0 1 0 1 1l2 0c0 0 0 1 1 1l1 0c0 0 1 0 1 0 1 0 1 1 1 1 1 0 1 0 2 0l1 1c0 0 1 0 1 0 0 0 1 0 1 0 1 0 1 1 1 1 1 0 1 0 2 0 0 0 0 1 1 1 0 0 1 0 1 0l1 0 1 1c1 0 1 0 2 0 0 1 0 1 1 1 0 0 1 0 1 0 0 0 1 0 1 0 1 1 1 1 1 1 1 0 1 0 2 0 0 1 0 1 1 1 0 0 1 0 1 1l1 0c1 1 1 1 1 1 1 0 1 0 2 1 0 0 0 0 1 1 0 0 1 0 1 0 0 1 1 1 1 1 1 1 1 1 1 1 1 0 1 0 2 1 0 0 0 0 1 1 0 0 1 0 1 0 0 1 1 1 1 1 1 1 1 1 1 1 1 0 1 0 2 1 0 0 0 0 1 1 0 0 1 0 1 0 0 1 1 1 1 1 1 1 1 1 1 1 1 0 1 1 2 1 0 0 0 1 1 1 0 0 1 1 1 1 0 1 1 1 1 1 1 1 1 1 1 2 1 0 1 0 2 1 0 0 0 1 1 1 0 0 1 1 1 1 0 1 1 1 1 1 1 1 1 1 1 2 1 0 1 0 2 1 0 0 0 1 1 1 0 1 1 1 1 2 0 0 1 1 1 2 1 0 1 0 1 1 1 1 1 1 2 2 0 0 0 1 1 1 0 1 1 2 1 2 0 0 1 1 1 2 1 0 1 1 1 2 1 0 1 1 2 2 0 0 0 1 1 2 0 0 1 1 1 2 0 0 1 1 1 2 1 1 1 2 1 2 1 1 1 2 2 3 0 1 0 1 1 3 0 0 1 2 1 2 0 2 1 2 1 4 1 1 1 2 1 3 1 1 1 3 2 4 0 2 0 3 1 5 0 2 1 4 1 5 0 3 1 6 1 9 1 3 1 7 1 10v574h-13z m-137-366c-1 0-1 1-2 1 0 0 0 0-1 1 0 0-1 0-1 0 0 1-1 1-1 1-1 1-1 1-1 1-1 0-1 0-2 0 0 0 0 0-1 0 0 0-1 1-1 1 0 0-1 0-1 0-1 0-1 1-1 1-1 0-1 0-2 0 0 0 0 0-1 0l0 0c-1 0-1 0-1 0 0 0-1 0-1 0-1 0-1 0-1 0-1 0-1 0-2 0 0 0 0 0-1 0 0 0-1 0-1 0 0 0-1 0-1 0h-67v-60h67c0 0 1 0 1 0 0 0 1 0 1 0 1 0 1 0 1 0 1 0 1 0 2 0 0 0 0 0 1 0 0 0 1 0 1 0 0 0 0 0 1 0l0 0c1 0 1 0 1 0 1 0 1 0 2 0 0 0 0 1 1 1 0 0 1 0 1 0 0 0 1 1 1 1 1 0 1 0 1 0 1 0 1 0 2 0 0 1 0 1 1 1 0 1 1 1 1 1 0 0 1 0 1 1 1 0 1 0 1 1 1 0 1 0 2 0 0 1 0 1 1 2 0 0 1 0 1 1 0 0 1 1 1 1 1 0 1 1 1 2 1 0 1 1 2 1 0 1 0 1 1 2 0 1 1 2 1 3 0 1 1 2 1 4 1 2 1 4 1 7 0 2 0 5-1 7 0 1 0 2-1 4 0 1-1 2-1 2-1 1-1 2-1 2-1 1-1 2-2 2 0 0 0 1-1 2 0 0-1 0-1 1 0 0-1 1-1 1-1 4-1 4-1 4z m0 80c0 1-1 2-1 2-1 1-1 2-1 2-1 1-1 2-2 2 0 0 0 1-1 2 0 0-1 0-1 1 0 0-1 1-1 1-1 0-1 1-1 1-1 0-1 1-2 1 0 0 0 0-1 0 0 1-1 1-1 1 0 1-1 1-1 1-1 0-1 0-1 0-1 1-1 1-2 1 0 0 0 0-1 0 0 0-1 1-1 1 0 0-1 0-1 0-1 0-1 0-1 0-1 0-1 1-2 1 0 0 0 0-1 0l0 0c-1 0-1 0-1 0 0 0-1 0-1 0-1 0-1 0-1 0-1 0-1 0-2 0 0 0 0 0-1 0h-61v-55h0v0h61c1 0 1 0 1 0 1 0 1 0 2 0 0 0 0 0 1 0 0 0 1 0 1 0 0 0 0 0 1 0l0 0c1 0 1 0 1 0 1 0 1 0 2 1 0 0 0 0 1 0 0 0 1 1 1 1 0 0 1 0 1 0 1 0 1 0 1 0 1 0 1 1 2 1 0 0 0 0 1 0 0 0 1 1 1 1 0 0 1 0 1 1 1 0 1 0 1 1 1 0 1 0 2 0 0 1 0 1 1 1 0 1 1 1 1 1 0 1 1 1 1 2 1 0 1 0 1 1 1 1 1 1 2 2 0 1 0 1 1 2 0 1 1 1 1 2 0 1 1 3 1 4 1 2 1 4 1 6 0 3 0 5-1 7 0 2-1 3-1 4z" horiz-adv-x="1000" />

<glyph glyph-name="visa" unicode="&#xe83d;" d="M774 325c13 0 46 0 46 0l-20 81c0 0-24-81-26-81z m146 370h-840c-33 0-60-27-60-60v-570c0-33 27-60 60-60h840c33 0 60 27 60 60v570c0 33-27 60-60 60z m-819-220h100c21 0 37-13 41-32l22-106c-21 56-86 115-164 134l1 4z m131-249l-52 195c38-23 68-55 85-87l6-29 63 170v0h68l-101-250h-69z m219-1h-64l40 250h64l-40-250z m112 0c-29 0-57 6-72 13l9 54 8-4c21-9 35-13 61-13 18 0 38 8 38 24 0 10-8 18-33 30-24 11-57 31-56 65 0 48 44 80 108 80 25 0 45-5 58-10l-9-52-6 2c-12 5-27 10-48 9-25 0-37-10-37-21 0-11 14-18 36-30 37-17 54-38 54-66 0-49-44-81-111-81z m277 0l-9 50h-75l-19-50h-67l95 229c7 16 19 20 34 20h49l52-249h-60z" horiz-adv-x="1000" />

<glyph glyph-name="amex" unicode="&#xe83e;" d="M920 695h-840c-33 0-60-27-60-60v-570c0-33 27-60 60-60h840c33 0 60 27 60 60v570c0 33-27 60-60 60z m0-450l-134 0-29 33-32-33h-260v26l-11-26h-64l-11 26v-26h-125l-14 34h-32l-14-34h-114l95 210c0 0 97 0 97 0l12-25v25h113l25-54 24 54h283l29-32 31 32h131l-95-106 95-104z m-115 180l-47-49-46 49h-149v-150h147l47 50 45-50h48l-69 75 69 75h-45z m-114-119h-91v30h81v31h-81v27l0 0h93l41-44-43-44z m-267 17l-48 102h-61v-142l-63 142h-55c0 0-67-150-67-150h41l14 33h77l15-33h75v118l54-118h32l54 118 0-118h37v150h-60l-45-102z m-226 17l26 60 26-60h-52z" horiz-adv-x="1000" />

<glyph glyph-name="mastercard-1" unicode="&#xe83f;" d="M417 350c0-66 33-125 83-163 51 38 83 97 83 163 0 66-33 125-83 163-51-38-83-97-83-163z m-28 0c0 72 33 136 86 179-31 17-66 26-103 26-117 0-212-92-212-205 0-113 95-205 212-205 37 0 72 9 103 26-53 43-86 107-86 179z m240 205c-38 0-73-9-104-26 53-43 87-107 87-179 0-72-34-136-87-179 31-17 66-26 104-26 117 0 212 92 212 205 0 113-95 205-212 205z m291 140h-840c-33 0-60-27-60-60v-570c0-33 27-60 60-60h840c33 0 60 27 60 60v570c0 33-27 60-60 60z m-291-578c-47 0-92 13-129 36-37-23-81-36-129-36-132 0-240 104-240 233 0 128 108 233 240 233 47 0 92-13 129-36 37 23 81 36 129 36 132 0 240-104 240-233 0-128-108-233-240-233z" horiz-adv-x="1000" />

<glyph glyph-name="tienda3" unicode="&#xe840;" d="M361 274c-10 0-19-8-19-19v-62c0-51-42-93-93-93s-94 42-94 93v62c0 11-8 19-19 19s-18-8-18-19v-62c0-72 58-131 131-131s131 59 131 132v62c0 10-8 18-19 18z m600 338h-120c-2 121-100 218-221 218s-219-97-221-218h-120c-11 0-19-8-19-18v-237h-221c-11 0-19-8-19-19v-450c0-10 8-18 19-18h922c11 0 19 8 19 18v706c0 10-8 18-19 18z m-525-3c0 101 83 183 184 183s184-82 184-183v-133c0-11-9-19-19-19s-19 8-19 19v133c0 81-66 146-146 146s-147-65-147-146v-133c0-11-8-19-19-19s-18 8-18 19v133z m293 3h-217c2 59 50 105 108 105s107-46 109-105z m213-704h-464v122c0 10-9 18-19 18s-19-8-19-18v-122h-382v412h382v-122c0-10 8-19 19-19s19 9 19 19v141c0 10-9 19-19 19h-161v217h101v-99c0-31 25-56 56-56s57 25 57 56v99h217v-99c0-31 25-56 57-56s56 25 56 56v99h101v-667z m-483 224c-5 0-10-2-13-5-4-4-6-9-6-13s2-10 6-14c3-3 8-5 13-5s9 2 13 5c4 4 6 9 6 14s-2 9-6 13c-4 3-8 5-13 5z" horiz-adv-x="1000" />

<glyph glyph-name="tienda2" unicode="&#xe841;" d="M978 514l-90 178v70c0 11-9 19-19 19h-738c-11 0-19-8-19-19v-70l-90-178c-1-2-2-5-2-8v-46c0-55 40-101 92-110v-394h-19c-10 0-19-8-19-18s9-19 19-19h38c0 0 0 0 0 0h513 150 75 38c11 0 19 8 19 19 0 10-8 18-19 18h-19v394c52 9 92 55 92 110v46c0 3-1 6-2 8z m-828 230h700v-38h-129-147-148-148-128v38z m461-236l-17 161h113l51-166v-43c0-41-33-74-74-74-40 0-74 33-74 74v46c1 0 1 1 1 2z m-37-3v-45h0c0-41-33-74-74-74-40 0-74 33-74 74v45l17 164h114l17-164z m-168 164l-17-161c0-1 0-2 0-2v-46c0-41-33-74-73-74s-74 33-74 74v43l50 166h114z m-348-209v41l85 168h111l-48-158c-1-1-1-3-1-5v-46c0-41-33-74-74-74-41 0-73 33-73 74z m717-504h-112v57 75h19c10 0 18 8 18 19 0 10-8 19-18 19h-19v131h112v-301z m75 0h-37v319c0 11-9 19-19 19h-150-438c-10 0-19-8-19-19v-262c0-11 9-19 19-19h419v-38h-475v394c30 6 56 23 73 48 20-30 54-49 93-49s72 19 92 49c20-30 54-49 92-49 39 0 73 19 93 49 20-30 54-49 92-49 39 0 73 19 93 49 16-25 42-42 73-48l-1-394 0 0z m-442 300h65l-36-35c-7-7-7-19 0-27 4-3 9-5 13-5 5 0 10 2 14 5l62 62h99v-224h-400v42l183 182z m-183-130v130h130l-130-130z m717 334c0-41-32-74-73-74-41 0-74 33-74 74v46c0 2 0 3-1 5l-48 158h111l85-168v-41z m-530-310c5 0 10 2 13 6l1 0c7 7 7 19 0 26-8 8-20 8-27 0l0 0c-7-7-7-19 0-26 3-4 8-6 13-6z m-373-194h0c-11 0-19-8-19-18s8-19 19-19h0c11 0 19 8 19 19s-8 18-19 18z m922 0h0c-11 0-19-8-19-18 0-11 8-19 19-19h0c11 0 19 8 19 19 0 10-8 18-19 18z" horiz-adv-x="1000" />

<glyph glyph-name="tienda" unicode="&#xe842;" d="M702 313h-130c-36 0-65-29-65-65v-100c0-36 29-65 65-65h130c36 0 65 29 65 65v100c0 36-29 65-65 65z m18-165c0-10-8-18-18-18h-130c-10 0-18 8-18 18v100c0 10 8 18 18 18h130c10 0 18-8 18-18v-100z m260 346c0 4-1 8-3 12l-143 251c-4 7-12 12-20 12h-628c-8 0-16-4-20-12l-143-251c-2-4-3-8-3-12 0-56 34-104 82-126v-414c0-12 11-23 24-23h130c0 0 0 0 0 0h183c0 0 0 0 0 0h435c12 0 23 10 23 23v412c0 0 0 1 0 2 49 22 83 70 83 126z m-780 228h600l112-196h-824l112 196z m503-244c-7-42-44-74-89-74-44 0-82 32-89 74h178z m-228 0c-7-42-44-74-89-74s-82 32-89 74h178z m-406 0h178c-7-42-45-74-89-74-45 0-82 32-89 74z m347-500h-136v254c0 18 15 34 34 34h68c18 0 34-15 34-34l0-254 0 0z m434 0h-388v254c0 44-36 81-80 81h-68c-45 0-81-36-81-81v-254h-83v379c2 0 5 0 8 0 48 0 90 24 114 61 25-37 67-61 114-61s89 24 114 61c25-37 67-61 114-61 48 0 89 24 114 61 25-37 67-61 114-61 3 0 5 0 8 0l0-379 0 0z m-8 426c-44 0-81 32-89 74h179c-8-42-45-74-90-74z" horiz-adv-x="1000" />

<glyph glyph-name="regalo" unicode="&#xe843;" d="M863 497l-94 34c34 28 49 73 38 115-20 84-122 115-186 58l-65-57-13 86c-13 85-111 125-180 75-34-25-53-69-45-113l-88 32c-44 16-92-7-108-50l-39-106c-5-14 3-31 17-36 6-2 433-157 439-159-18 0-407 0-424 0-16 0-28-13-28-28v-394c0-46 37-84 84-84h225 112 225c47 0 85 38 85 84v320l21-8c15-5 31 2 36 17l39 106c15 43-7 92-51 108z m-495-571h-197c-15 0-28 12-28 28v365h225v-393z m112 0h-56v393h56v-393z m178 736c32 29 84 13 94-30 12-44-32-84-76-68-36 14-54 20-91 34l73 64z m-262 100c36 26 85 5 92-38l14-96c-10 4-81 30-91 33-44 16-52 74-15 101z m14-280l-264 96 28 80c6 14 22 22 36 16 30-10 229-83 238-86l-38-106z m105-38l-53 19 39 106 53-19-39-106z m246-490c0-15-12-28-28-28h-196v394h157l67-25 0-341 0 0z m99 454l-28-79-264 96 38 105 238-86c14-6 22-22 16-36z" horiz-adv-x="1000" />

<glyph glyph-name="whatsapp" unicode="&#xe844;" d="M522 830c-7 0-15 0-22 0-265 0-480-215-480-480 0-116 41-223 110-306l36 127c-40 67-60 143-60 222 0 234 184 425 416 437z m458-458c-11-231-203-416-437-416-75 0-149 19-214 56l-132-34c83-68 188-108 303-108 265 0 480 215 480 480 0 7 0 15 0 22z m-644-312l3-2c61-38 132-57 204-57 216 0 392 176 392 392 0 217-176 393-392 393-217 0-393-176-393-393 0-75 22-148 62-211l2-3-45-162 167 43z m-11 464c7 30 29 54 42 66 7 6 16 8 25 8l28-2c6 0 10-3 13-8l41-97c2-5 1-11-2-15l-36-42c-3-3-4-8-2-12 48-91 134-127 160-136 4-2 9 0 12 3l38 49c4 6 11 7 17 4l96-44c7-2 10-9 9-16l-5-21c-5-24-19-45-40-58-26-17-59-25-102-13-133 38-208 126-248 180-41 55-56 110-46 154z" horiz-adv-x="1000" />

<glyph glyph-name="perfil" unicode="&#xe845;" d="M500-150l106 24-82 82-24-106z m0 153c1 0 1 0 1 1 0 0 0 0 1 0l235 235c-66 135-187 216-327 216-102 0-196-44-266-123-69-80-109-192-111-316 41-20 211-100 377-100 24 0 46 1 69 3l18 76c0 0 0 0 0 0 0 1 0 1 0 1s0 0 1 1c0 0 0 0 0 1 0 0 0 0 0 0 0 1 1 1 1 1 0 1 0 1 0 1 0 0 1 0 1 0 0 1 0 1 0 1 0 1 0 1 0 2z m39-12l102-101 279 279-101 102-280-280z m-129 500c99 0 180 80 180 179 0 100-81 180-180 180-99 0-180-80-180-180 0-99 81-179 180-179z m485-174c-19 0-37-7-51-21l102-102c14 14 21 32 21 51 0 40-32 72-72 72z" horiz-adv-x="1000" />

<glyph glyph-name="world" unicode="&#xe846;" d="M899 617l-15-4-76-7-22-35-15 5-61 55-9 28-12 31-38 34-45 9-2-21 45-43 21-26-24-13-20 6-30 13 2 24-39 16-13-57-39-8 4-32 51-10 9 50 42-6 20-12h31l22-43 57-58-4-22-47 7-80-40-57-69-7-31h-21l-38 18-37-18 9-39 16 19 28 1-2-35 24-7 23-27 39 11 44-7 51-13 26-3 43-49 83-49-54-104-56-26-22-59-82-55-9-32c211 51 367 240 367 466 0 99-30 191-81 267z m-344-518l-35 65 32 67-32 9-36 36-80 18-26 56v-33h-12l-68 93v77l-51 82-80-15h-54l-27 18 34 28-34-8c-42-71-66-154-66-242 0-265 215-480 480-480 20 0 40 2 60 4l-5 58c0 0 22 86 22 89 0 3-22 78-22 78z m-357 576l86 12 39 22 44-13 71 4 24 38 36-6 85 8 24 26 33 22 47-7 17 3c-62 29-131 46-204 46-149 0-282-68-370-174h0l68 19z m322 107l50 27 31-18-45-35-44-4-20 13 28 17z m-145-4l22-9 28 9 16-26-66-18-31 19c0 0 30 20 31 25z" horiz-adv-x="1000" />

<glyph glyph-name="instagramnormal" unicode="&#xe847;" d="M701 830h-402c-154 0-279-125-279-279v-402c0-154 125-279 279-279h402c154 0 279 125 279 279v402c0 154-125 279-279 279z m204-681c0-113-91-204-204-204h-402c-113 0-204 91-204 204v402c0 113 91 204 204 204h402c113 0 204-91 204-204v-402z m-405 460c-143 0-259-116-259-259s116-259 259-259 259 116 259 259-116 259-259 259z m0-443c-101 0-184 83-184 184s83 184 184 184 184-83 184-184-83-184-184-184z" horiz-adv-x="1000" />

<glyph glyph-name="mesenger" unicode="&#xe848;" d="M500 830c-264 0-480-196-480-438 0-126 58-244 161-328v-194l193 98c41-10 83-15 126-15 264 0 480 197 480 439s-215 438-480 438z m0-802c-40 0-80 6-119 16l-14 4-108-54v106l-15 12c-93 70-146 172-146 280 0 200 181 363 403 363s403-163 403-363c-1-201-182-364-404-364z m235 498l51-50-226-232-111 108-177-124-51 50 223 234 111-108 180 122z" horiz-adv-x="1000" />

<glyph glyph-name="tiktok" unicode="&#xe849;" d="M921 590c-55 0-106 18-146 48-47 36-80 87-92 146-3 15-5 30-5 46h-156v-428-235c0-63-41-115-98-134-16-6-34-8-52-7-24 1-46 8-65 20-41 24-69 68-69 119-2 80 62 144 142 144 16 0 31-3 44-7v117 42c-14 2-30 3-45 3-87 0-167-36-226-101-43-49-70-112-74-177-5-87 26-168 87-229 10-9 19-17 29-25 51-40 115-62 183-62 15 0 30 1 45 3 63 9 121 38 167 84 57 56 88 130 88 209l0 350c27-21 56-38 88-52 49-20 102-31 155-31v115l0 42c0 0 0 0 0 0l0 0z" horiz-adv-x="1000" />

<glyph glyph-name="whatsappnormal" unicode="&#xe84a;" d="M720 258l0-4c-88 44-97 50-108 33-8-12-31-39-38-47-7-8-14-8-26-3-12 6-51 19-96 59-36 32-60 71-67 83-12 20 13 23 35 65 4 9 2 16 0 22-4 6-27 64-38 88-9 23-19 20-26 20-23 2-40 2-55-13-65-71-49-144 7-222 108-142 166-169 272-205 28-9 54-7 74-5 23 4 71 29 81 57 10 29 10 52 7 58-2 6-10 8-22 14l0 0z m121 434c-308 297-817 82-817-338 0-84 22-166 64-238l-68-246 253 66c317-171 707 56 707 418 0 127-49 246-140 336l1 2z m59-336c0-306-336-496-601-340l-14 8-150-38 41 145-10 15c-165 262 24 606 337 606 106 0 205-42 281-117 75-74 116-174 116-279l0 0z" horiz-adv-x="1000" />

<glyph glyph-name="ubicacion" unicode="&#xe84b;" d="M288 10c57-16 132-25 212-25s155 9 212 25c70 20 106 49 106 85 0 37-36 65-106 85-32 9-69 16-110 20 80 137 160 292 160 368 0 145-118 262-262 262s-262-117-262-262c0-76 80-231 160-368-41-4-78-11-110-20-70-20-106-48-106-85 0-36 36-65 106-85z m212 764c113 0 205-92 205-206 0-58-72-210-192-407-4-7-11-7-13-7-2 0-9 0-13 7-120 197-192 349-192 407 0 114 92 206 205 206z m-187-645c34 8 74 14 117 17 4-4 6-10 9-14 13-22 36-34 61-34 25 0 48 12 61 34 3 4 6 9 9 14 43-3 83-9 117-17 51-13 70-28 74-34-4-5-23-20-74-33-51-13-117-20-187-20s-136 7-187 20c-51 13-70 28-74 33 4 6 23 21 74 34z m585 28c-14 7-31 2-38-11-8-14-2-31 11-38 34-19 53-39 53-56 0-22-30-54-113-82-83-28-193-44-311-44s-228 16-310 44c-84 28-113 60-113 82 0 17 19 37 53 56 13 7 18 24 11 38-8 13-25 18-38 11-39-21-83-55-83-105 0-39 26-93 152-136 88-30 204-46 328-46s240 16 328 46c126 43 152 97 152 136 0 50-44 84-82 105z m-293 429c0 58-47 106-105 106s-105-48-105-106c0-58 47-105 105-105s105 47 105 105z m-154 0c0 27 22 49 49 49 27 0 49-22 49-49s-22-48-49-48c-27 0-49 22-49 48z" horiz-adv-x="1000" />

<glyph glyph-name="control-calidad" unicode="&#xe84c;" d="M607 439l-144-136-69 71c-8 8-21 8-29 0-8-7-8-20 0-28l83-85c8-8 20-8 28-1l159 150c4 4 6 9 7 14 0 5-2 10-6 14-8 8-21 9-29 1z m-107 210c-165 0-299-134-299-299 0-165 134-299 299-299 165 0 299 134 299 299 0 165-134 299-299 299z m0-558c-143 0-259 117-259 259s116 259 259 259c143 0 259-116 259-259s-116-259-259-259z m412 369l6 119c1 8-4 15-11 19l-105 54-54 105c-4 7-11 11-19 11l-119-6-99 65c-7 4-15 4-22 0l-99-66-119 7c-8 0-15-4-19-11l-53-106-106-53c-7-4-11-11-11-19l6-119-64-99c-5-7-5-15 0-22l65-99-7-119c0-8 4-15 11-19l106-54 53-105c4-7 12-11 20-11l118 6 100-65c6-5 15-5 22 0l99 65 119-6c8-1 15 4 19 11l53 105 106 54c7 4 11 11 11 19l-7 119 66 99c4 7 4 15 0 22l-66 99z m-38-204c-2-3-3-8-3-12l6-112-100-51c-4-2-7-5-9-9l-50-100-112 6c-5 0-9 0-13-3l-93-61-94 62c-3 2-7 3-11 3h-1l-112-6-51 100c-2 4-5 7-9 9l-100 50 7 112c0 5-1 9-3 13l-62 93 62 94c2 3 4 8 3 12l-6 112 100 50c4 2 7 5 9 9l50 100 112-6c5 0 9 1 13 3l93 62 94-62c3-2 8-4 12-3l112 6 51-100c2-4 5-7 9-9l100-50-6-112c0-5 0-9 3-12l61-94-62-94z" horiz-adv-x="1000" />

<glyph glyph-name="tuboensayo" unicode="&#xe84d;" d="M920 86c-8 13-271 426-279 439v136c46 0 84 38 84 84s-38 85-84 85h-282c-46 0-84-38-84-84s38-85 84-85v-136l-279-439c-60-94 8-216 119-216h603c110 0 178 122 118 216z m-509 416c3 4 5 9 5 15v144c15 0 28 13 28 28s-13 28-28 28h-57c-15 0-28 13-28 28s13 28 28 28h281c16 0 28-13 28-28s-12-28-28-28h-56c-16 0-28-12-28-28s12-28 28-28v-144c0-5 2-11 4-15l77-120c-66 14-135 1-193-38l-88-58c-39-26-86-37-131-32l158 248z m390-576h-602c-67 0-107 74-71 130l93 147c18-4 36-6 54-6 49 0 98 14 140 43l88 58c65 43 148 44 213 3l156-245c36-56-4-130-71-130z m-470 225c-46 0-84-38-84-84s38-85 84-85 85 38 85 85-38 84-85 84z m0-112c-15 0-28 13-28 28s13 28 28 28 28-13 28-28-12-28-28-28z m281 225c-46 0-84-38-84-85s38-84 84-84 85 38 85 84-38 85-85 85z m0-113c-15 0-28 13-28 28s13 28 28 28 28-13 28-28-12-28-28-28z" horiz-adv-x="1000" />

<glyph glyph-name="cajaproducto" unicode="&#xe84e;" d="M924 647l-414 181c-6 3-14 3-20 0l-414-181c-10-4-16-14-16-24v-517c0-9 6-18 14-23l414-210c4-2 8-3 12-3 4 0 8 1 11 3l414 208c9 4 14 13 14 23v519c1 11-6 20-15 24z m-424 129l349-153-349-153-91 40 138 60c13 6 19 21 13 34-2 6-7 11-13 14l-111 48c-6 3-14 3-20 0l-182-79-83 36 349 153z m-233-260l52-23v-112l-52 26v109z m31 43l128 55 46-20-127-56-47 21z m-186 25l104-46v-148c0-9 5-18 14-23l103-51c13-7 29-2 35 11 2 4 3 8 3 12v132l103-45v-488l-362 184v462z m414-646v487l362 159v-464l-362-182z m144 188l-104-52c-13-6-18-22-12-35 7-13 22-18 35-11l104 52c13 6 18 22 11 34-6 13-22 18-34 12l0 0z m-92 2c4 0 8 1 11 3l102 51c13 7 18 22 12 35-7 13-22 18-35 12l0 0-102-51c-13-7-18-22-12-35 5-9 14-15 24-15z" horiz-adv-x="1000" />

<glyph glyph-name="frasco2" unicode="&#xe84f;" d="M369 391c0 9-6 16-15 18-8 2-17-2-21-9l-104-196c-3-6-3-12 1-18 3-6 9-9 16-9h85v-70c0-9 5-16 13-18 2-1 4-1 5-1 7 0 13 3 16 9l104 176c4 5 4 13 0 19-3 6-9 9-16 9h-84v90z m52-127l-52-89v21c0 10-9 18-19 18h-73l54 102v-34c0-10 9-19 19-19l71 1 0 0z m499 42v55c0 31-25 57-56 57h-166c-6 0-12-2-18-4v74c0 94-66 174-154 194v92c0 31-25 56-56 56h-240c-32 0-57-25-57-56v-92c-87-20-153-99-153-194v-479c0-77 62-139 139-139h382c27 0 53 8 75 22 16-14 37-22 60-22h210c52 0 94 42 94 94v255c0 39-25 74-60 87z m-221 74h165c10 0 19-8 19-19v-49h-203v49c0 11 8 19 19 19l0 0z m-210 394v-87h-38v105h19c10 0 19-8 19-18z m-203-87v105h46v-105h-46z m83 105h45v-105h-45v105z m-158-105v87c0 10 9 18 19 18h19v-105h-38z m8-37h262c83 0 151-63 160-143h-207c-10 0-19-8-19-19s9-18 19-18h208v-164c-35-14-60-48-60-88v-191h-524v443h208c10 0 18 8 18 18s-8 19-18 19h-207c9 80 77 143 160 143z m-60-742c-50 0-91 35-100 82h523v-26c0-16 4-30 10-43-15-9-33-14-51-14h-382z m783 56c0-32-25-57-56-57h-210c-31 0-56 25-56 57v255c0 31 25 56 56 56h210c31 0 56-25 56-56v-255z m-122 158h-20v22c0 9-6 16-14 18-9 2-18-1-22-9l-38-73c-4-6-3-12 0-18 3-6 10-9 16-9h20v-15c0-8 6-16 14-18 1 0 3 0 4 0 7 0 13 3 16 9l39 65c4 6 4 13 0 19-2 6-8 9-15 9z m-470 348c5 0 10 2 13 5 4 4 6 9 6 13 0 5-2 10-6 14-3 3-8 5-13 5-5 0-10-2-13-5-4-4-6-9-6-14 0-4 2-9 6-13 3-3 8-5 13-5z" horiz-adv-x="1000" />

<glyph glyph-name="frasco1" unicode="&#xe850;" d="M765 641h-530c-71 0-129-57-129-129v-474c0-92 76-168 168-168h452c92 0 168 75 168 168v474c0 72-58 129-129 129z m97-603c0-75-61-136-136-136h-452c-75 0-136 61-136 136v474c0 54 44 98 97 98l0 0h530c53 0 97-44 97-98v-474z m-189 666h-346c-9 0-16-7-16-16v-62c0-9 7-16 16-16h346c9 0 16 7 16 16v62c0 9-7 16-16 16z m-16-63h-314v32h315l-1-32 0 0z m102 189h-518c-22 0-40-18-40-40v-77c0-22 18-40 40-40h518c22 0 40 18 40 40v77c0 22-18 40-40 40z m9-117c0-5-4-9-9-9h-518c-5 0-9 4-9 9v77c0 5 4 9 9 9h518c5 0 9-4 9-9v-77z m110-213h-756c-8 0-15-8-15-16v-441c0-9 7-15 15-15h756c9 0 16 7 16 15v441c0 8-8 16-16 16z m-16-441h-724v409h724v-409z m-535 771c-9 0-16-7-16-16v-62c0-9 7-16 16-16s15 7 15 16v62c1 9-6 16-15 16z m110 0c-9 0-15-7-15-16v-62c0-9 7-16 15-16s16 7 16 16v62c0 9-7 16-16 16z m236 0c-9 0-15-7-15-16v-62c0-9 7-16 15-16 9 0 16 7 16 16v62c0 9-7 16-16 16z m-110 0c-9 0-16-7-16-16v-62c0-9 7-16 16-16s15 7 15 16v62c1 9-6 16-15 16z m-95-701c0 12 2 23 6 35 3 13 9 25 15 37 5 10 12 19 19 28 7 10 14 20 22 30 1 2 2 3 1 5-2 10-5 20-8 30-4 10-9 20-14 30-5 8-11 16-16 23-5 7-11 12-17 17-10 6-20 8-30 6-16-3-27-11-36-24-1-1-2-2-2-3-2-2-2-3 1-3 3-1 7-2 10-3 12-4 22-12 29-23 4-6 7-13 8-20 1-6 2-12 3-18 2-11 5-21 11-30 4-5 7-10 12-13 2-1 3-2 4-3 1-1 2-3 1-4-1-3-2-5-5-5-1-1-2 0-3 1-11 7-18 16-23 27-4 8-7 17-8 25-2 7-2 14-4 20-4 15-12 25-26 31-10 4-20 5-30 4-6 0-12-2-17-4-5-1-11-3-16-5-7-2-15-4-23-7-3-1-6-1-8 2-2 2-1 6 1 7 1 1 3 2 5 2 9 3 19 6 28 9 6 2 13 4 20 5 5 2 10 4 15 5 2 1 3 3 5 5 4 6 8 12 14 17 10 8 21 15 34 16 11 1 21 0 31-6 11-6 19-14 26-23 9-12 17-24 23-38 3-5 5-11 7-17 3-6 5-13 6-19 0 0 1-1 1-2 0 0 0-2 0-2 2 0 2 1 2 2 5 5 9 10 14 15 7 9 15 18 23 27 9 9 18 18 27 27 5 5 10 10 14 15 12 12 22 25 33 38 4 5 8 12 11 18 1 2 1 4 1 6-1 4-3 6-7 6-5 0-10-2-14-4-12-5-21-13-30-21-13-11-23-23-32-37-8-10-14-21-18-33-3-7-6-15-8-22 0-1 0-2-1-3-2-3-4-4-6-3-3 2-5 5-4 8 2 6 4 11 6 17 5 14 12 27 20 39 11 17 23 32 38 45 11 8 22 16 35 21 5 2 11 4 17 3 11-1 18-12 15-22-4-10-9-19-16-27-11-15-24-28-36-42-6-7-13-13-19-20-3-4-7-7-11-10-7-9-15-17-22-25-9-10-17-20-26-30-2-2-2-4-2-8 0-4 0-8 1-12 0-8 0-16 0-24 0-9-1-18-3-27-1-7-3-15-5-22-2-8-5-15-7-23-5-12-10-24-18-34-3-5-6-10-10-13-4-3-8-5-12-6-6-1-10 2-13 5-4 4-6 8-7 14-1 6-2 11-2 17z m11 0c0-3 1-6 1-9 0-5 1-9 4-13 2-3 5-3 8-1 2 0 3 1 4 2 4 4 8 9 11 14 7 11 12 23 16 36 4 12 7 25 9 39 3 15 4 31 2 46 0 0 0 1 0 1-1 1-2 0-2-1-1-1-2-3-3-4-7-8-13-17-19-25-6-9-12-19-16-29-5-9-8-19-11-29-2-8-4-18-4-27z m-34 234c5 1 9-5 9-9 0-4-5-8-9-8-4 0-9 5-8 9 0 4 3 8 8 8z" horiz-adv-x="1000" />

<glyph glyph-name="afn" unicode="&#xe851;" d="M414-23c0 32 6 63 14 93 10 36 26 70 43 102 14 27 31 53 50 78 21 26 41 54 61 80 3 4 4 8 3 14-5 28-13 54-23 81-10 28-23 55-38 81-13 22-27 44-44 64-13 16-28 32-46 44-25 16-52 22-81 17-42-7-73-31-97-64-2-3-5-6-7-9-3-5-3-8 3-9 9-2 18-4 27-7 34-12 60-33 79-63 11-17 18-35 22-55 4-16 6-33 9-49 5-29 13-56 30-80 9-14 19-27 33-37 4-2 7-4 9-7 3-3 7-7 5-13-2-6-6-11-13-12-3-1-7 0-10 2-28 19-48 45-63 75-10 22-17 45-21 68-3 18-5 37-10 55-11 40-33 68-71 84-26 11-53 13-81 10-17-1-32-6-47-11-14-4-28-8-42-13-21-6-42-12-63-19-8-2-15-3-21 4-6 7-5 16 2 21 4 2 8 4 13 6 26 6 51 15 77 22 18 6 36 11 53 16 14 4 27 8 41 12 6 2 10 8 13 12 11 17 23 34 39 47 26 23 56 41 92 45 29 4 58-2 84-16 29-16 51-39 70-64 24-32 46-66 64-102 7-15 13-31 19-46 7-17 12-35 17-52 0-2 0-4 1-5 1-3-1-6 2-7 3 0 4 3 6 5 12 14 24 28 36 43 20 24 41 48 64 72 24 25 49 50 74 74 13 14 25 28 38 42 31 32 60 66 88 101 12 15 23 32 30 51 2 5 3 10 2 16-1 10-6 15-17 15-14 0-27-5-40-10-30-13-56-33-82-55-34-29-62-63-87-100-19-28-35-58-48-90-8-20-16-40-21-61-1-2-2-5-3-7-5-8-11-10-17-8-9 4-13 12-10 21 6 16 11 32 16 48 14 37 32 72 53 105 29 45 64 85 105 120 28 24 59 45 94 58 14 6 30 11 46 9 30-4 49-33 40-62-8-27-24-51-41-73-31-40-65-76-99-112-17-19-35-38-52-56-9-10-20-18-28-28-21-22-42-44-62-68-24-26-46-54-69-82-5-6-7-12-6-22 1-12 1-22 2-34 2-21 1-43 1-65-1-24-4-48-8-71-4-21-9-41-14-61-6-21-13-41-21-61-12-33-26-65-46-93-9-13-17-25-29-35-10-7-20-13-32-15-15-3-26 4-36 14-10 9-16 22-19 35-3 16-6 31-5 47z m29 0c0-9 1-17 2-25 1-11 3-23 11-33 6-7 13-9 21-5 4 3 8 5 12 8 11 11 21 24 29 37 18 30 32 63 43 96 12 35 21 70 27 107 6 41 8 83 4 124 0 2 1 4-1 5-3 1-3-1-5-3-2-4-5-8-8-12-17-22-34-44-50-67-18-25-33-51-46-79-11-25-22-50-28-78-6-25-10-50-11-75z m-93 635c14 2 25-15 25-24 0-11-14-24-24-24-11 0-25 14-23 25 0 11 9 24 22 23z" horiz-adv-x="1000" />

<glyph glyph-name="comprasonline" unicode="&#xe852;" d="M516 443c0 20-13 37-31 43v65h124v-279h31v279h92v-279h31v310h-155v93c0 85-69 155-154 155-22 0-43-5-62-13-19 8-40 13-62 13-86 0-155-70-155-155v-93h-155v-712h402v31h-371v650h124v-65c-18-6-31-23-31-43 0-26 21-47 46-47s47 21 47 47c0 20-13 37-31 43v65h248v-65c-18-6-31-23-31-43 0-26 21-47 46-47s47 21 47 47z m-326-15c-8 0-15 6-15 15s7 16 15 16c9 0 16-7 16-16s-7-15-16-15z m264 371c68 0 124-55 124-124v-93h-93v93c0 49-23 93-58 121 8 2 17 3 27 3z m-155-217h-93v93c0 69 56 124 124 124 9 0 18-1 27-3-35-28-58-72-58-121v-93z m31 0v93c0 46 24 86 62 107 36-21 62-61 62-107v-93h-124z m124-139c0 8 6 15 15 15s16-6 16-15-7-16-16-16-15 7-15 16z m480-201h-434c-26 0-46-21-46-47v-279c0-25 20-46 46-46h434c25 0 46 21 46 46v279c0 26-21 47-46 47z m15-326c0-8-7-15-15-15h-434c-8 0-16 7-16 15v171h465v-171z m0 202h-465v30h465v-30z m0 62h-465v15c0 9 7 16 16 16h434c8 0 15-7 15-16v-15z m-186-248c19 0 35 8 47 21 11-13 28-21 46-21 34 0 62 28 62 62 0 34-28 62-62 62-18 0-35-8-46-21-12 13-28 21-47 21-34 0-62-28-62-62 0-34 28-62 62-62z m93 93c17 0 31-14 31-31s-14-31-31-31-31 14-31 31 14 31 31 31z m-93 0c17 0 31-14 31-31s-14-31-31-31c-17 0-31 14-31 31s14 31 31 31z" horiz-adv-x="1000" />

<glyph glyph-name="distribuidor" unicode="&#xe853;" d="M964 222h-176c-9 0-16-7-16-16 0 0 0 0 0 0v-22l-16-6v220c0 9-7 16-16 16 0 0 0 0 0 0h-480c-9 0-16-7-16-16 0 0 0 0 0 0v-193c-7 1-13 1-20 1h-28v16c0 9-7 16-16 16 0 0 0 0 0 0h-144c-9 0-16-7-16-16 0 0 0 0 0 0v-192c0-9 7-16 16-16 0 0 0 0 0 0h144c9 0 16 7 16 16 0 0 0 0 0 0v16h11c43-31 95-48 149-48h67c-9-25 4-52 29-61 5-2 10-3 16-3h162c57 0 110 25 147 68 3-2 7-4 11-4h176c9 0 16 7 16 16 0 0 0 0 0 0v192c0 9-7 16-16 16 0 0 0 0 0 0z m-800-176h-112v160h112v-160z m560 118c-38-17-72-41-102-70l-58 0h0v288h160v-218z m-368 218h96v-57l-5 5c-6 6-16 6-23 0l-20-21-21 21c-7 6-17 6-23 0l-5-5v57z m-80 0h48v-96c0-9 7-16 16-16 4 0 8 2 11 5l21 21 21-21c6-7 16-7 23 0l20 21 21-21c7-7 17-7 23 0 3 3 5 7 5 11v96h48v-300l0 0c-9 8-20 12-32 12l-51 0c9 25-4 52-29 61-5 2-11 3-16 3h0l-58 0c-20 19-44 32-70 40v184z m-54-307c-3 2-6 3-10 3h-16v96h28c39 0 77-16 104-43 4-3 8-5 12-5h0l64 0c8 0 16-7 16-16s-8-16-16-16h-80v-32h64v0l112 0c9 0 16-7 16-16s-7-16-16-16c0 0 0 0 0 0h-144c-48 0-96 16-134 45z m541-38c-30-44-80-71-133-71h-162c-9 0-16 7-16 16 0 9 7 16 16 16l112 0v0h64v32h-80c-9 0-16 7-16 16 0 9 7 16 16 16h0l64 0h0c4 0 8 2 11 5 31 30 66 54 105 71l10 4h2v1l16 7v-99l-9-14z m185-7h-144v160h144v-160z m-688 624h-64c-9 0-16-7-16-16 0 0 0 0 0 0v-64h32v25l85-85 23 23-85 85h25v32z m-187-315l23 23-21 20h105v32h-105l21 21-23 23-48-48c-7-6-7-16 0-23 0 0 0 0 0 0l48-48z m443 219v153l21-21 23 23-48 48c-7 7-17 7-23 0 0 0 0 0 0 0l-48-48 23-23 20 21v-153h32z m304 16v64c0 9-7 16-16 16 0 0 0 0 0 0h-64v-32h25l-85-85 23-23 85 85v-25h32z m107-117l-23-23 21-20h-105v-32h105l-21-21 23-23 48 48c7 6 7 16 0 23 0 0 0 0 0 0l-48 48z" horiz-adv-x="1000" />

<glyph glyph-name="maquila" unicode="&#xe854;" d="M131 464h87v-56h-87v56z m0-113h87v-56h-87v56z m0-112h87v-57h-87v57z m651 225h87v-56h-87v56z m0-113h87v-56h-87v56z m0-112h87v-57h-87v57z m-651-113h87v-56h-87v56z m651 0h87v-56h-87v56z m72 460v99h-57v-99h-70v213l-454-107v-106h-71v99h-56v-99h-126v-684h960v684h-126z m-581-628h-197v572h197v-572z m255 0h-56v56h56v-56z m143 0h-87v112h-168v-112h-87v689l342 81v-770z m253 0h-197v572h197v-572z m-472 476c-4 1-8-4-8-7 0-3 4-8 8-8 3 0 8 4 8 7 0 4-4 9-8 8z m-99-43c7 2 14 4 20 6 5 1 9 3 14 4 5 2 10 3 15 4 9 1 18 0 26-3 12-6 20-15 23-27 2-6 2-12 3-18 2-7 4-15 7-21 5-10 11-18 20-24 1-1 2-1 3-1 3 0 4 2 4 4 1 1 0 3-1 4-1 1-2 1-3 2-4 3-8 7-11 12-5 7-8 16-9 25-1 6-2 11-3 16-1 6-4 12-7 18-6 10-15 16-26 20-2 1-5 2-8 2-2 1-2 2-1 3 1 1 1 2 2 3 8 11 18 18 31 21 10 1 18-1 26-6 6-3 10-9 15-14 5-7 10-13 14-21 5-8 9-17 12-26 3-8 6-17 7-26 1-2 0-3 0-4-7-9-13-18-20-26-6-8-12-16-16-25-6-11-10-21-14-33-2-10-4-19-4-30 0-5 0-10 1-14 1-5 3-9 6-12 3-3 7-5 12-4 3 1 7 3 10 5 4 3 7 7 9 11 6 10 11 20 15 30 2 7 5 14 6 20 2 6 3 13 5 19 1 8 2 15 2 23 0 7 0 14 0 21 0 4 0 7-1 11 0 3 1 5 2 7 7 9 15 18 22 27 7 7 13 14 20 21 3 3 7 6 9 9 6 6 12 12 17 18 11 12 22 24 32 36 5 7 10 15 13 24 3 9-3 18-13 19-5 1-10-1-15-3-11-4-20-11-30-18-13-12-24-24-33-39-7-11-13-22-17-34-2-5-4-10-5-15-1-3 0-6 3-7 2-1 4 0 5 3 1 0 1 1 1 2 2 7 4 13 7 20 4 10 9 20 15 28 8 12 18 23 28 32 8 7 17 14 26 18 4 2 9 3 13 3 4 0 5-1 6-5 0-2-1-3-1-5-2-6-6-12-10-17-8-11-18-22-28-32-4-4-8-9-12-13-8-8-16-16-24-24-7-8-14-15-20-23-4-5-8-10-12-14 0-1-1-2-2-2-1 1 0 2-1 2 0 1 0 2 0 2-2 6-3 11-5 17-2 5-4 10-7 15-5 12-12 22-20 32-7 9-13 16-23 21-8 5-17 6-27 5-11-1-21-7-29-14-5-5-9-10-13-15-1-2-2-3-4-4-4-1-9-3-13-4-6-2-11-4-17-5-8-3-16-6-25-8-1 0-2 0-4-1-2-2-2-5 0-7 2-2 5-2 7-1z m176-60c1 0 0-1 0-1 1-14 1-27-1-40-2-12-5-23-9-34-3-11-8-21-14-31-2-4-5-8-9-11-1-2-2-2-4-3-2-1-4-1-6 2-3 3-4 7-4 11 0 2-1 5 0 8 0 8 1 16 3 24 2 9 6 17 9 25 4 9 10 17 15 25 5 8 10 15 16 22 1 1 1 3 3 4 0-1 0 0 1-1z" horiz-adv-x="1000" />

<glyph glyph-name="camara-video" unicode="&#xe855;" d="M964 585c-10 6-23 7-34 1l-224-112v82c0 56-46 102-103 102h-480c-57 0-103-46-103-102v-412c0-57 46-103 103-103h480c57 0 103 46 103 103v82l224-112c17-9 38-2 46 15 3 5 4 10 4 15v412c0 12-6 23-16 29z m-327-441c0-18-15-34-34-34h-480c-19 0-35 15-35 34v412c0 18 16 34 35 34h480c19 0 34-15 34-34v-412z m275 56l-206 102v95l206 103v-300z m-549 287c-76 0-137-61-137-137 0-76 61-137 137-137 75 0 137 61 137 137 0 76-62 137-137 137z m0-205c-38 0-69 30-69 68 0 38 31 68 69 68 38 0 68-30 68-68 1-38-30-68-68-68z" horiz-adv-x="1000" />

<glyph glyph-name="reloj" unicode="&#xe856;" d="M500 830c-265 0-480-215-480-480 0-265 215-480 480-480 265 0 480 215 480 480 0 265-215 480-480 480z m355-508h68c-7-96-45-183-104-251l-29 29c-11 11-29 11-40 0-11-10-11-28 0-39l29-29c-68-60-155-98-251-104v49c0 15-12 28-28 28-15 0-28-13-28-28v-49c-95 6-182 44-250 104l29 29c11 11 11 29 0 39-11 11-29 11-40 0l-29-29c-60 68-98 155-104 251h49c16 0 28 12 28 28 0 16-12 28-28 28h-50c7 96 45 183 104 251l29-29c11-11 29-11 40 0 11 10 11 28 0 39l-29 29c68 60 155 98 251 104v-49c0-15 12-28 28-28 15 0 28 13 28 28v50c95-7 182-45 250-104l-29-29c-11-11-11-29 0-40 11-11 29-11 40 0l29 29c60-68 98-155 104-251h-68c-16 0-28-12-28-28 1-16 14-28 29-28z m-177 56h-150v233c0 16-12 28-28 28-16 0-28-12-28-28v-261c0-16 12-28 28-28h178c15 0 28 12 28 28 0 16-13 28-28 28z" horiz-adv-x="1000" />

<glyph glyph-name="arrows-cw" unicode="&#xe857;" d="M843 261q0-3 0-4-36-150-150-243t-267-93q-81 0-157 31t-136 88l-72-72q-11-11-25-11t-25 11-11 25v250q0 14 11 25t25 11h250q14 0 25-11t10-25-10-25l-77-77q40-36 90-57t105-20q74 0 139 37t104 99q6 10 30 66 4 13 16 13h107q8 0 13-6t5-12z m14 446v-250q0-14-10-25t-26-11h-250q-14 0-25 11t-10 25 10 25l77 77q-82 77-194 77-75 0-140-37t-104-99q-6-10-29-66-5-13-17-13h-111q-7 0-13 6t-5 12v4q36 150 151 243t268 93q81 0 158-31t137-88l72 72q11 11 25 11t26-11 10-25z" horiz-adv-x="857.1" />

<glyph glyph-name="degustacion" unicode="&#xe858;" d="M735 575c-1 29-8 53-19 78v177l-118-34v-29c-30 13-63 22-98 22-128 0-230-96-235-214h-39v-117h40l38-530c0-32 27-58 59-58h274c32 0 59 26 59 58l38 530h40v117h-39z m-98 193l39 13v-69c-11 12-24 24-39 34v22z m-137-20c112 0 196-78 196-184l0-8h-392l0 8c0 106 84 184 196 184z m184-418h-125v-19h124l-4-59h-81v-20h80l-4-58h-115v-20h113l-4-59h-70v-19h69l-4-59h-104v-20h103l-5-69 0 0c0-11-9-19-20-19h-274c-11 0-20 9-20 19l-37 530h389l-11-128z m51 167h-470v39h39 392 10 29v-39z" horiz-adv-x="1000" />

<glyph glyph-name="etiqueta" unicode="&#xe859;" d="M900-129h-800c-44 0-80 36-80 80v600c0 44 36 80 80 80h400c11 0 20-9 20-20 0-11-9-20-20-20h-400c-22 0-40-18-40-40v-600c0-22 18-40 40-40h800c22 0 40 18 40 40v600c0 22-18 40-40 40-11 0-20 9-20 20 0 11 9 20 20 20 44 0 80-36 80-80v-600c0-44-36-80-80-80z m0 80h-680v600h200c11 0 20-9 20-20s-9-20-20-20h-160v-520h600v520h-40c-11 0-20 9-20 20s9 20 20 20h80v-600z m-720 40h-160v520h160v-520z m-120 40h80v440h-80v-440z m309 249l53 166 360 360c30 30 82 30 113 0 31-31 31-82 0-113l-360-360-166-53z m88 145l-27-83 83 26 353 353c16 16 16 41 0 57-15 15-42 15-56 0l-353-353z m395 234c-5 0-10 2-14 6l-85 85c-8 8-8 20 0 28 8 8 21 8 29 0l84-85c8-8 8-20 0-28-4-4-9-6-14-6z m-113-113c-5 0-10 2-14 6l-85 84c-8 8-8 21 0 29s20 8 28 0l85-85c8-8 8-20 0-28-4-4-9-6-14-6z m-215-216c-5 0-10 2-14 6l-85 85c-8 8-8 21 0 29s21 8 29 0l84-85c8-8 8-21 0-29-4-4-9-6-14-6z m-164-79c-5 0-10 2-14 6-8 8-8 21 0 29l40 39c8 8 20 8 28 0s8-20 0-28l-40-40c-4-4-9-6-14-6z" horiz-adv-x="1000" />

<glyph glyph-name="down-open" unicode="&#xf004;" d="M0 533q0 25 18 43t44 18 42-18l305-303 304 303q18 18 43 18t43-18q18-18 18-43t-18-43l-390-391-391 391q-18 19-18 43z" horiz-adv-x="817.4" />

<glyph glyph-name="up-open" unicode="&#xf005;" d="M0 167q0 26 18 43l391 391 390-391q17-17 17-43 0-26-17-44-18-17-44-17t-43 17l-303 305-305-305q-18-17-43-17t-43 17q-18 18-18 44z" horiz-adv-x="816.9" />

<glyph glyph-name="right-open" unicode="&#xf006;" d="M0 0q0 25 18 43l305 304-305 304q-18 18-18 44t18 43 44 18 43-18l390-391-390-391q-19-18-43-18t-44 18q-18 18-18 44z" horiz-adv-x="495.1" />

<glyph glyph-name="left-open" unicode="&#xf007;" d="M0 353l391 391q18 18 43 18 24 0 43-18 18-18 18-44t-18-43l-304-304 304-305q18-17 18-43t-18-43q-18-18-43-18t-43 18z" horiz-adv-x="495.1" />

<glyph glyph-name="menu" unicode="&#xf0c9;" d="M857 100v-71q0-15-10-25t-26-11h-785q-15 0-25 11t-11 25v71q0 15 11 25t25 11h785q15 0 26-11t10-25z m0 286v-72q0-14-10-25t-26-10h-785q-15 0-25 10t-11 25v72q0 14 11 25t25 10h785q15 0 26-10t10-25z m0 285v-71q0-14-10-25t-26-11h-785q-15 0-25 11t-11 25v71q0 15 11 26t25 10h785q15 0 26-10t10-26z" horiz-adv-x="857.1" />

<glyph glyph-name="chat-empty" unicode="&#xf0e6;" d="M393 636q-85 0-160-29t-118-79-44-107q0-45 30-88t83-73l54-32-19-46q19 11 34 21l25 18 30-6q43-8 85-8 85 0 160 29t118 79 43 106-43 107-118 79-160 29z m0 71q106 0 197-38t143-104 53-144-53-143-143-104-197-38q-48 0-98 9-70-49-155-72-21-5-48-9h-2q-6 0-12 5t-6 12q-1 1-1 3t1 4 1 3l1 3t2 3 2 3 3 3 2 2q3 3 13 14t15 16 12 17 14 21 11 25q-69 40-108 98t-40 125q0 78 53 144t143 104 197 38z m459-652q5-14 11-25t14-21 13-16 14-17 13-14q0 0 2-2t3-3 2-3 2-3l1-3t1-3 1-4-1-3q-2-8-7-13t-12-4q-28 4-48 9-86 23-156 72-50-9-98-9-151 0-263 74 32-3 49-3 90 0 172 25t148 72q69 52 107 119t37 141q0 43-13 85 72-39 114-99t42-128q0-67-40-126t-108-98z" horiz-adv-x="1000" />

<glyph glyph-name="download-cloud" unicode="&#xf0ed;" d="M714 332q0 8-5 13t-13 5h-125v196q0 8-5 13t-12 5h-108q-7 0-12-5t-5-13v-196h-125q-8 0-13-5t-5-13q0-8 5-13l196-196q5-5 13-5t13 5l196 196q5 6 5 13z m357-125q0-89-62-151t-152-63h-607q-103 0-177 73t-73 177q0 72 39 134t105 92q-1 17-1 24 0 118 84 202t202 84q87 0 159-49t105-129q40 35 93 35 59 0 101-42t42-101q0-43-23-77 72-17 119-76t46-133z" horiz-adv-x="1071.4" />

<glyph glyph-name="angle-double-up" unicode="&#xf102;" d="M600 118q0-7-6-13l-28-28q-5-5-12-5t-13 5l-220 219-219-219q-5-5-13-5t-12 5l-28 28q-6 6-6 13t6 13l260 260q5 5 12 5t13-5l260-260q6-6 6-13z m0 214q0-7-6-13l-28-28q-5-5-12-5t-13 5l-220 220-219-220q-5-5-13-5t-12 5l-28 28q-6 6-6 13t6 13l260 260q5 6 12 6t13-6l260-260q6-6 6-13z" horiz-adv-x="642.9" />

</font>
</defs>
</svg>
